<?xml version="1.0" encoding="UTF-8" standalone="no"?>
<!DOCTYPE svg  PUBLIC '-//W3C//DTD SVG 1.1//EN'  'http://www.w3.org/Graphics/SVG/1.1/DTD/svg11.dtd'>
<svg xmlns="http://www.w3.org/2000/svg">
<defs>
<font id="CaeciliaLT-Light" horiz-adv-x="1139">
<font-face underline-position="-154" font-weight="400" descent="-410" panose-1="2 0 5 3 4 0 0 2 0 4" units-per-em="2048" unicode-range="U+0020-25CA" bbox="-336 -545 2314 1870" x-height="1053" underline-thickness="102" font-family="CaeciliaLT" ascent="1638" cap-height="1434"/>
<missing-glyph horiz-adv-x="2048"/>
<glyph glyph-name=".notdef" horiz-adv-x="2048"/>
<glyph glyph-name=".null" horiz-adv-x="0"/>
<glyph glyph-name="nonmarkingreturn" horiz-adv-x="682"/>
<glyph glyph-name="space" horiz-adv-x="569" unicode=" "/>
<glyph glyph-name="exclam" horiz-adv-x="647" unicode="!" d="M370 492h-90l-17 1083h123zM230 77q0 37 28 66q26 27 67 29h4q17 0 32 -8q31 -11 50 -52q7 -16 7.5 -28t0.5 -14q0 -19 -8 -35q-19 -57 -86 -60h-4q-17 0 -33 8q-32 12 -51 52q-7 23 -7 42z"/>
<glyph glyph-name="quotedbl" horiz-adv-x="682" unicode='&quot;' d="M427 1425q-6 83 -6 91q0 29 16 49q20 25 62 26h3q41 0 58 -26q12 -14 16 -49q0 -8 -6 -91l-20 -278q-2 -21 -12.5 -37.5t-38.5 -17.5h-2q-46 0 -50 55zM114 1425q-7 70 -7 94q0 25 18.5 48t59.5 24h3q41 0 58 -26q13 -15 17 -49q0 -8 -6 -91l-20 -278q-4 -54 -52 -55h-3 q-25 0 -36 17.5t-12 37.5z"/>
<glyph glyph-name="numbersign" d="M737 877h-291l-45 -320h291zM678 459h-291l-63 -459h-99l64 459h-230v98h244l45 320h-229v98h243l64 459h98l-63 -459h291l63 459h98l-63 -459h229v-98h-243l-45 -320h229v-98h-244l-63 -459h-99z" unicode="#"/>
<glyph glyph-name="dollar" d="M191 319l-4 -200q88 -25 171 -33q63 -6 159 -8l4 598l-78 18q-260 60 -331 227q-25 59 -25 141q0 136 79 234q97 120 273 150q35 6 86 8l4 260h90l-4 -260q124 0 296 -40q25 -5 65 -17l-4 -262h-99l5 180q-34 11 -101 25q-60 12 -162 16l-4 -582l99 -24q152 -37 242 -121 q101 -94 102 -246q0 -135 -75 -233q-73 -96 -204 -140q-76 -25 -168 -30l-4 -275h-90l4 275q-107 0 -247 19q-64 8 -181 34l4 286h98zM525 1356q-79 0 -153 -33q-170 -75 -170 -253q0 -108 68 -173q58 -55 175 -86l76 -20zM607 78q134 0 228 76q104 85 104 227 q0 162 -156 229q-49 21 -84 29l-88 20z" unicode="$"/>
<glyph glyph-name="percent" horiz-adv-x="1745" unicode="%" d="M428 1454h5q61 0 118 -23q112 -45 158 -166q22 -58 22 -135q0 -148 -90 -242q-82 -85 -217 -85q-143 0 -228 94q-81 89 -81 231q0 144 87 234t226 92zM424 1372h-3q-92 0 -150 -65.5t-58 -178.5q0 -107 52 -172q56 -69 161 -71h4q144 0 189 148q13 43 14 104v6 q0 42 -13 85q-27 89 -103 125q-39 18 -93 19zM1327 631h5q61 0 118 -23q112 -45 158 -166q22 -58 22 -136q0 -150 -90 -242q-82 -84 -217 -84q-143 0 -228 94q-81 89 -81 231q0 144 87 234t226 92zM1323 549h-3q-92 0 -150 -65.5t-58 -178.5q0 -108 52 -173q56 -69 161 -71 h4q144 0 189 148q14 45 14 108q0 98 -52.5 164t-156.5 68zM348 -61l940 1605l74 -49l-940 -1606z"/>
<glyph glyph-name="ampersand" horiz-adv-x="1669" unicode="&amp;" d="M1064 842h457v-90h-177q-4 -212 -94 -389q-28 -55 -53 -89q81 -84 170 -151q44 -33 113 -33h51v-90h-70q-74 0 -129 29q-72 38 -143 110l-53 54q-92 -110 -208 -161q-109 -48 -253 -48q-240 0 -367 122q-114 110 -114 276q0 107 71 206q58 81 189 176l51 37l-82 84 q-46 47 -85 127q-34 70 -34 146q0 127 97 213.5t253 86.5q154 0 239 -92q69 -74 69 -182q0 -169 -160 -283l-144 -102l471 -457q109 168 109 410h-174v90zM681 920q87 64 127 115q47 60 47 131q0 101 -64 155q-54 46 -147 47h-3q-93 0 -159 -57q-71 -61 -71 -156 q0 -59 30 -111q35 -61 82 -108l76 -76zM509 694q-33 -22 -84 -69q-117 -108 -117 -251q0 -122 102 -211t271 -89q131 0 237 57q92 49 152 123l-500 481z"/>
<glyph glyph-name="quotesingle" horiz-adv-x="455" unicode="&apos;" d="M156 1425q-6 83 -6 91q0 29 16 49q20 25 61 26h3q41 0 58 -26q13 -15 17 -49q0 -8 -6 -91l-20 -278q-4 -54 -52 -55h-3q-25 0 -36 17.5t-12 37.5z"/>
<glyph glyph-name="parenleft" horiz-adv-x="645" unicode="(" d="M559 -545q-368 475 -369 1073q0 356 103 640q81 222 237 438l82 -52q-98 -133 -143 -218q-78 -146 -121 -325q-50 -207 -51 -483v-12q0 -322 109 -606q88 -229 229 -399z"/>
<glyph glyph-name="parenright" horiz-adv-x="645" unicode=")" d="M86 1606q368 -480 369 -1078q0 -355 -103 -639q-45 -125 -109 -236q-68 -118 -128 -198l-82 51q93 123 143 216q77 143 120 324q51 211 52 482v11q0 169 -31 325q-59 298 -188 512q-66 109 -119 174z"/>
<glyph glyph-name="asterisk" horiz-adv-x="684" unicode="*" d="M389 1575l-16 -270l231 131l37 -72l-240 -115l240 -112l-37 -72l-231 131l16 -268h-98l16 268l-229 -131l-35 72l238 112l-238 115l35 72l229 -131l-16 270h98z"/>
<glyph glyph-name="plus" horiz-adv-x="1229" unicode="+" d="M565 469h-469v98h469v469h99v-469h469v-98h-469v-469h-99v469z"/>
<glyph glyph-name="comma" horiz-adv-x="569" unicode="," d="M178 -279q31 31 58 77q40 69 40 116q0 51 -45 100q-15 16 -30 33.5t-15 42.5q0 82 93 82q22 0 41 -11q41 -17 61 -82q10 -32 10 -72q0 -86 -50 -185q-49 -96 -114 -150z"/>
<glyph glyph-name="hyphen" horiz-adv-x="797" unicode="-" d="M150 586h497v-107h-497v107z"/>
<glyph glyph-name="period" horiz-adv-x="569" unicode="." d="M191 77q0 37 28 66q26 27 67 29h4q17 0 32 -8q31 -11 50 -52q7 -16 8 -38v-4q0 -19 -8 -35q-19 -57 -86 -60h-4q-17 0 -33 8q-32 12 -51 52q-7 23 -7 42z"/>
<glyph glyph-name="slash" horiz-adv-x="797" unicode="/" d="M711 1591l94 -32l-719 -1717l-94 33z"/>
<glyph glyph-name="zero" d="M209 700v-6q0 -260 89 -430q46 -86 111.5 -135.5t159.5 -50.5h2q165 0 270 201q92 177 93 462v6q0 273 -96 441q-96 167 -248 168h-4q-171 0 -275 -181q-100 -175 -102 -475zM94 694v14q0 173 49 331q58 191 172 299q121 115 289 116h4q100 0 183 -54q165 -107 227 -373 q30 -130 31 -282v-7q0 -183 -51 -350q-56 -183 -159 -289q-114 -118 -276 -119h-5q-309 0 -419 378q-43 148 -45 336z" unicode="0"/>
<glyph glyph-name="one" d="M295 90h293l8 1227l-24 -21q-9 -8 -25 -18l-332 -213l-55 82l452 287h90l-8 -1344h305v-90h-704v90z" unicode="1"/>
<glyph glyph-name="two" d="M129 84l379 377q169 169 248 304q90 155 90 301q0 207 -171 270q-52 19 -124 20h-3q-124 0 -203 -75q-58 -56 -86 -141q-17 -52 -17 -85h-107q0 52 29 126q44 113 125 181q107 91 278 92h3q187 0 294 -116q97 -106 97 -269q0 -166 -115 -353q-92 -151 -264 -315 l-314 -301v-6q64 4 164 4h567v-98h-870v84z" unicode="2"/>
<glyph glyph-name="three" d="M147 162q62 -31 133 -52q45 -13 111 -25q45 -7 107 -7q255 0 345 177q29 58 29 135q0 232 -267 274q-89 14 -212 14h-28v98h30q149 0 270 74q91 56 130 152q20 51 20 117q0 113 -73.5 174.5t-198.5 62.5h-5q-98 0 -166 -37q-97 -53 -121 -150q-9 -37 -11 -75h-107 q0 83 41 158q49 89 132 141q96 60 239 61h7q180 0 280 -96q97 -93 98 -255q0 -126 -90 -225q-79 -86 -203 -124v-4q196 -18 289 -150q60 -85 61 -207v-5q0 -181 -137 -295q-133 -111 -373 -113h-7q-81 0 -186 23q-83 18 -143 48z" unicode="3"/>
<glyph glyph-name="four" d="M698 1118q1 76 7 176h-5q-31 -61 -86 -139l-442 -620q64 4 164 4h358zM522 90h168l4 359h-637v79l641 906h107l-4 -895h286v-90h-286l-4 -359h182v-90h-457v90z" unicode="4"/>
<glyph glyph-name="five" d="M909 1335h-604l-4 -473q317 0 483 -99q183 -109 183 -339q0 -257 -218 -374q-130 -70 -303 -70q-113 0 -222 29q-37 10 -68 24v104q118 -59 284 -59q197 0 306 90q106 88 106 242q0 289 -389 339q-116 15 -268 15l4 670h710v-99z" unicode="5"/>
<glyph glyph-name="six" d="M985 1331q-11 2 -36 8q-13 2 -44 8q-68 9 -96 9q-192 0 -325 -90q-100 -67 -154 -174q-71 -139 -86 -297q-6 -63 -6 -123q156 185 374 186h3q191 0 302 -133q97 -116 99 -295v-7q0 -186 -109 -310q-117 -133 -313 -133q-248 0 -368 189q-103 162 -103 435q0 386 158 604 q178 246 538 246q40 0 108 -9q31 -5 45 -8q22 -4 27 -7zM901 432q0 144 -79 235t-226 93h-4q-97 0 -192 -51q-69 -37 -121 -95q-28 -31 -39 -53l-2 -4q0 -210 88 -338q96 -139 270 -141h3q124 0 212.5 92.5t89.5 261.5z" unicode="6"/>
<glyph glyph-name="seven" d="M141 1434h852v-74l-304 -656q-116 -245 -251 -482q-65 -114 -135 -222h-131q68 94 174 273q84 142 195 370q95 209 290 623q20 40 39 69h-729v99z" unicode="7"/>
<glyph glyph-name="eight" d="M468 741l-113 68q-88 53 -130 114q-53 77 -54 173v6q0 145 94 238q90 89 239 108q40 6 85 6h7q83 0 156 -24q141 -45 194 -166q25 -57 26 -129v-6q0 -58 -20 -110q-48 -128 -197 -214l-88 -51l110 -62q121 -68 169 -125q75 -88 75 -215q0 -207 -183 -308 q-117 -64 -278 -64q-207 0 -327 102q-113 97 -113 255q0 115 85 219q62 76 169 134zM572 803l95 57q146 88 182 177q16 40 16 92q0 102 -80 166q-74 59 -202 61h-8q-121 0 -209.5 -62.5t-88.5 -175.5q0 -139 122 -220q23 -15 77 -44zM566 696l-96 -53q-120 -66 -170 -122 q-66 -73 -66 -187q0 -117 97 -188q48 -35 106 -51t133 -17h8q150 0 239 73.5t89 200.5q0 148 -184 254z" unicode="8"/>
<glyph glyph-name="nine" d="M154 102q11 -2 35 -8q28 -4 44 -8q61 -8 97 -8h7q229 0 369 130q111 103 161 284q29 106 34 270q-157 -186 -375 -187h-3q-191 0 -301 133q-99 120 -99 296q0 192 108 316q116 134 314 134q247 0 368 -190q103 -162 103 -435q0 -385 -159 -604q-176 -242 -538 -245 q-42 0 -107 9q-16 2 -46 8q-22 4 -27 7zM238 1006q0 -150 77 -239q81 -93 228 -93q100 0 195 50q64 34 121 95q18 20 34 44q7 10 8 14q0 332 -210 446q-63 32 -148 33h-3q-124 0 -211 -90q-91 -94 -91 -260z" unicode="9"/>
<glyph glyph-name="colon" horiz-adv-x="569" unicode=":" d="M191 921q0 37 28 66q26 27 67 29h4q17 0 32 -8q31 -11 50 -52q7 -16 8 -38v-4q0 -19 -8 -35q-11 -34 -50 -53q-17 -6 -36 -7h-5q-36 0 -62 28q-11 13 -19 32q-8 22 -9 42zM191 77q0 37 28 66q26 27 67 29h4q17 0 32 -8q31 -11 50 -52q7 -16 8 -38v-4q0 -19 -8 -35 q-19 -57 -86 -60h-4q-17 0 -33 8q-32 12 -51 52q-7 23 -7 42z"/>
<glyph glyph-name="semicolon" horiz-adv-x="569" unicode=";" d="M178 -279q31 31 58 77q40 69 40 116q0 51 -45 100q-15 16 -30 33.5t-15 42.5q0 82 93 82q22 0 41 -11q41 -17 61 -82q10 -32 10 -72q0 -86 -50 -185q-49 -96 -114 -150zM190 921q0 37 28 66q26 27 67 29h4q17 0 32 -8q31 -11 50 -52q7 -16 7.5 -28t0.5 -14q0 -19 -8 -35 q-11 -34 -50 -53q-17 -6 -36 -7h-5q-36 0 -62 28q-12 13 -20 33.5t-8 40.5z"/>
<glyph glyph-name="less" horiz-adv-x="1229" unicode="&lt;" d="M96 575l1037 478v-103l-938 -432l938 -432v-102l-1037 477v114z"/>
<glyph glyph-name="equal" horiz-adv-x="1229" unicode="=" d="M96 768h1037v-98h-1037v98zM96 367h1037v-99h-1037v99z"/>
<glyph glyph-name="greater" horiz-adv-x="1229" unicode="&gt;" d="M1133 461l-1037 -477v102l938 432l-938 432v103l1037 -478v-114z"/>
<glyph glyph-name="question" horiz-adv-x="1024" unicode="?" d="M391 461q-41 30 -62 61q-38 55 -38 127q0 56 28 100q27 42 91 93l196 155q129 102 131 240q0 35 -15 85q-30 98 -134 146q-52 24 -131 25h-5q-108 0 -200 -39l-14 100q111 37 223 37q121 0 215 -50q104 -54 149 -157q27 -62 27 -129q0 -182 -152 -305l-184 -149 q-27 -22 -78 -70q-32 -36 -32 -85q0 -37 25 -73q6 -9 20 -25q7 -6 18 -18zM307 78q0 92 94 94h3q38 0 65 -28t27 -70q0 -97 -95 -99h-4q-90 0 -90 103z"/>
<glyph glyph-name="at" horiz-adv-x="1638" unicode="@" d="M504 578q0 -98 41 -150q45 -57 133 -57q101 0 192 86q76 72 130 195q49 111 49 215q0 94 -41 142t-131 48q-102 0 -194 -82q-80 -72 -131 -188q-48 -110 -48 -209zM1165 1120h115l-205 -590q-25 -71 -26 -118q-1 -22 14.5 -35.5t40.5 -14.5h4q84 0 169 79q78 72 132 188 q53 113 53 224q0 221 -184 372q-172 141 -418 143h-4q-190 0 -350 -92q-152 -87 -240.5 -235t-89.5 -324v-5q0 -269 198 -457q94 -89 217 -139q120 -49 269 -50h7q75 0 155 19q261 60 389 257h123q-101 -166 -286 -268q-177 -98 -283.5 -98.5t-108.5 -0.5q-209 0 -396 102 q-173 95 -277.5 266.5t-104.5 373.5q0 203 107 374q105 167 281 266q180 101 394 101q294 0 497 -176t204 -444q0 -146 -75 -282q-71 -129 -180 -205.5t-221 -78.5h-5q-92 0 -122 76q-8 20 -8 62h-4q-75 -72 -136 -103q-68 -35 -148 -35t-140 36q-123 75 -125 259v8 q0 136 63.5 271.5t170.5 217.5q119 91 256 91q76 0 131 -38q60 -41 94 -130h4z"/>
<glyph glyph-name="A" horiz-adv-x="1479" unicode="A" d="M16 90h138l553 1344h114l492 -1344h149v-90h-450v90h178l-186 508h-533l-203 -508h191v-90h-443v90zM778 1225q-10 24 -24 78h-4q-3 -23 -11 -39q-8 -25 -14 -39l-217 -537h463z"/>
<glyph glyph-name="B" horiz-adv-x="1251" unicode="B" d="M102 90h164l8 1253h-172v91h455q205 0 299 -59q38 -24 64 -50q41 -41 65 -99q28 -67 29 -136v-7q0 -121 -72.5 -212t-193.5 -111v-4q31 0 78 -10q90 -19 160 -72q75 -57 109 -161q16 -51 17 -120v-5q0 -91 -35 -165q-69 -146 -260 -198q-93 -25 -215 -25h-500v90z M555 784q143 0 235 69q109 82 109 226q0 163 -123 230q-62 34 -194 34h-193l-4 -559h170zM588 90q175 0 277 56q82 45 115 137q17 48 17 117q0 74 -32 131q-61 110 -207 146q-69 17 -146 17h-227l-4 -604h207z"/>
<glyph glyph-name="C" horiz-adv-x="1403" unicode="C" d="M1253 328l-2 -297q-59 -12 -177 -35q-121 -21 -234 -21q-328 0 -520 183q-205 196 -205 559q0 346 211 546q204 193 548 195h7q219 0 393 -65l-4 -287h-107l4 215q-142 38 -301 39h-6q-284 0 -457.5 -176.5t-173.5 -478.5q0 -297 168 -463t457 -168h14l148 10 q85 11 129 22l2 222h106z"/>
<glyph glyph-name="D" horiz-adv-x="1554" unicode="D" d="M102 90h164l8 1253h-172v91h627q350 0 538 -186q184 -183 185 -529q0 -334 -189 -523q-196 -196 -563 -196h-598v90zM688 90q304 0 476.5 166.5t172.5 468.5q0 155 -44 271q-87 229 -327 308q-119 39 -266 39h-311l-8 -1253h307z"/>
<glyph glyph-name="E" horiz-adv-x="1176" unicode="E" d="M102 90h164l8 1253h-172v91h924v-287h-90v196h-547l-4 -573h498v-90h-498l-4 -590h567l17 213h98l-16 -303h-945v90z"/>
<glyph glyph-name="F" d="M102 0v90h164l8 1253h-172v91h924l-4 -293h-94l-4 202h-535l-4 -585h547v-90h-547l-4 -578h194v-90h-473z" unicode="F"/>
<glyph glyph-name="G" horiz-adv-x="1479" unicode="G" d="M1427 598v-90h-167l-9 -477q-59 -12 -177 -35q-121 -21 -234 -21q-328 0 -520 183q-205 196 -205 559q0 346 211 546q203 193 548 195h8q164 0 312 -39q32 -8 98 -28v-277h-106v199q-120 46 -303 47h-7q-297 0 -473 -176q-174 -174 -174 -479q0 -297 168 -463t457 -168 h14l148 10q85 11 129 22l8 402h-182v90h456z"/>
<glyph glyph-name="H" horiz-adv-x="1593" unicode="H" d="M102 90h164l8 1253h-172v91h459v-91h-172l-4 -585h823l4 585h-180v91h459v-91h-164l-8 -1253h172v-90h-459v90h172l4 578h-823l-4 -578h180v-90h-459v90z"/>
<glyph glyph-name="I" horiz-adv-x="684" unicode="I" d="M117 0v90h164l8 1253h-172v91h450v-91h-164l-8 -1253h172v-90h-450z"/>
<glyph glyph-name="J" horiz-adv-x="645" unicode="J" d="M547 1434v-91h-164l-10 -954q-1 -110 -20 -222q-38 -226 -207 -377q-91 -81 -236 -142l-33 90q185 93 276 228q105 157 107 394l8 983h-172v91h451z"/>
<glyph glyph-name="K" horiz-adv-x="1403" unicode="K" d="M102 90h164l8 1253h-172v91h451v-91h-164l-4 -581l678 581h-178v91h450v-91h-133l-694 -602l694 -651h141v-90h-466v90h178l-670 617l-4 -617h172v-90h-451v90z"/>
<glyph glyph-name="L" d="M102 0v90h164l8 1253h-172v91h451v-91h-164l-8 -1253h567l17 213h98l-16 -303h-945z" unicode="L"/>
<glyph glyph-name="M" horiz-adv-x="1858" unicode="M" d="M86 90h174l8 1253h-182v91h336l489 -1221q13 -32 17 -53h4q2 19 16 53l494 1221h330v-91h-183l8 -1253h175v-90h-463v90h182l-8 1167h-4q-4 -16 -21 -59l-485 -1198h-92l-482 1184q-4 9 -12 31q-2 11 -8 34h-4l-8 -1159h182v-90h-463v90z"/>
<glyph glyph-name="N" horiz-adv-x="1630" unicode="N" d="M84 90h166l8 1253h-195v91h312l872 -1194q13 -17 43 -78h4l6 1181h-200v91h467v-91h-158l-10 -1343h-115l-874 1198q-23 31 -41 74h-4l-9 -1182h189v-90h-461v90z"/>
<glyph glyph-name="O" horiz-adv-x="1552" unicode="O" d="M1440 717v-7q0 -371 -206 -569q-171 -165 -456 -166h-3q-332 0 -504 212q-152 188 -154 530v8q0 316 156 513q174 220 505 220q337 0 508 -213q152 -189 154 -528zM1325 717v7q0 145 -38 266q-75 239 -281 327q-99 42 -228 43h-4q-186 0 -318.5 -96t-187.5 -274 q-37 -120 -37 -277q0 -303 145.5 -470t401.5 -169h6q121 0 222 43q206 86 281 326q37 119 38 274z"/>
<glyph glyph-name="P" d="M385 698h213q148 0 238 80q97 85 98 251q0 155 -107 239q-95 75 -262 75h-176zM102 90h164l8 1253h-172v91h437q140 0 234 -26q126 -35 194 -116q81 -97 82 -260v-6q0 -185 -125.5 -305.5t-331.5 -120.5h-207l-4 -510h192v-90h-471v90z" unicode="P"/>
<glyph glyph-name="Q" horiz-adv-x="1552" unicode="Q" d="M117 717v8q0 316 156 513q174 220 505 220q337 0 508 -213q153 -191 154 -533q0 -283 -124 -471q-137 -208 -396 -251v-4q246 -130 390 -187q180 -71 298 -73h29q27 0 51 1.5t38 4.5v-99l-61 -4q-23 -1 -72 -2h-5q-141 0 -373 104q-146 65 -492 246q-310 17 -465 226 q-72 97 -107 230q-33 127 -34 284zM1325 717v7q0 145 -38 266q-75 239 -281 327q-99 42 -228 43h-4q-186 0 -318.5 -96t-187.5 -274q-37 -120 -37 -277q0 -303 145.5 -470t401.5 -169h6q121 0 222 43q206 86 281 326q37 119 38 274z"/>
<glyph glyph-name="R" horiz-adv-x="1327" unicode="R" d="M102 90h164l8 1253h-172v91h476q229 0 345 -80q128 -88 128 -289q0 -124 -63 -218q-51 -75 -137 -121q-60 -32 -134 -40v-4q51 -10 101 -62q32 -33 73 -102l160 -268q28 -48 92 -130q32 -30 84 -30q36 0 76 8v-98q-48 -8 -97 -8q-61 0 -90 9q-38 12 -68 48q-17 20 -42 62 l-220 368q-41 69 -63 95q-40 48 -91 66q-31 11 -73 11h-174l-4 -561h186v-90h-465v90zM582 750q150 0 247 75q106 82 107 228v6q0 70 -23 127q-44 109 -181 141q-69 16 -159 16h-184l-4 -593h197z"/>
<glyph glyph-name="S" horiz-adv-x="1176" unicode="S" d="M256 324l4 -197q60 -23 141 -38q77 -14 166 -15h8q185 0 286 89q89 79 89 212q0 139 -124 216q-63 39 -271 96q-96 26 -141 43q-80 29 -131 67q-123 91 -123 265q0 157 112 268q130 128 361 128q158 0 304 -44q25 -7 69 -21l4 -263h-99l-4 189q-116 41 -282 41 q-105 0 -191 -40q-98 -46 -137 -133q-23 -51 -23 -111q0 -142 123 -213q71 -42 272 -96q138 -37 208 -75q106 -58 154 -153q34 -67 34 -173q0 -173 -129.5 -281t-357.5 -110h-8q-96 0 -226 23q-102 18 -190 45l-4 281h106z"/>
<glyph glyph-name="T" horiz-adv-x="1368" unicode="T" d="M442 90h181l8 1253h-459l-8 -231h-98l8 322h1220l9 -322h-99l-8 231h-451l-8 -1253h189v-90h-484v90z"/>
<glyph glyph-name="U" horiz-adv-x="1556" unicode="U" d="M541 1434v-91h-168q-1 -90 -5 -398q-3 -247 -3 -398q0 -276 87 -374t336 -99h4q240 0 325 121q76 107 79 411l8 737h-180v91h457v-91h-162l-8 -786q-2 -185 -41 -301q-45 -133 -156 -205q-115 -75 -330 -76h-6q-221 0 -343 73q-109 65 -152 196q-33 100 -33 284 q0 206 3 408l5 407h-182v91h465z"/>
<glyph glyph-name="V" horiz-adv-x="1442" unicode="V" d="M4 1434h449v-91h-179l431 -1134q15 -39 20 -70h4q5 29 21 70l434 1134h-180v91h434v-91h-140l-518 -1343h-114l-514 1343h-148v91z"/>
<glyph glyph-name="W" horiz-adv-x="2163" unicode="W" d="M1110 915h-4l-361 -915h-131l-444 1343h-154v91h445v-91h-168l375 -1159q3 -10 18 -69h4q10 36 23 69l350 873l-88 286h-162v91h442v-91h-165l360 -1159q5 -23 16 -69h4q3 19 21 69l407 1159h-190v91h438v-91h-141l-481 -1343h-129z"/>
<glyph glyph-name="X" horiz-adv-x="1403" unicode="X" d="M893 90h176q-19 22 -37 49l-334 508l-348 -508q-22 -32 -39 -49h193v-90h-449v90h131l459 649l-412 604h-151v91h461v-91h-185q27 -31 39 -49l312 -473l329 473q23 33 41 49h-186v91h444v-91h-141l-428 -604l434 -649h146v-90h-455v90z"/>
<glyph glyph-name="Y" horiz-adv-x="1442" unicode="Y" d="M508 90h166l8 549l-516 704h-154v91h441v-91h-154q21 -21 41 -49l397 -553l400 553q12 18 41 49h-189v91h441v-91h-136l-497 -704l-9 -549h179v-90h-459v90z"/>
<glyph glyph-name="Z" horiz-adv-x="1327" unicode="Z" d="M125 90l909 1204q18 24 43 49h-821l-8 -221h-98l8 312h1044v-91l-901 -1204q-18 -24 -43 -49h836l8 227h98l-8 -317h-1067v90z"/>
<glyph glyph-name="bracketleft" horiz-adv-x="645" unicode="[" d="M569 1575v-90h-221l-8 -1909h211v-90h-318l9 2089h327z"/>
<glyph glyph-name="backslash" horiz-adv-x="797" unicode="\" d="M-8 1559l94 32l719 -1716l-94 -33z"/>
<glyph glyph-name="bracketright" horiz-adv-x="645" unicode="]" d="M76 -514v90h221l8 1909h-211v90h318l-9 -2089h-327z"/>
<glyph glyph-name="asciicircum" horiz-adv-x="1229" unicode="^" d="M567 1434h95l376 -748h-112l-312 612l-311 -612h-113z"/>
<glyph glyph-name="underscore" horiz-adv-x="1024" unicode="_" d="M0 -256v102h1024v-102h-1024z"/>
<glyph glyph-name="grave" horiz-adv-x="569" unicode="`" d="M25 1546l69 64l357 -314l-72 -55z"/>
<glyph glyph-name="a" horiz-adv-x="1176" unicode="a" d="M1070 0h-274q0 72 13 181q4 37 9 59h-4q-47 -126 -121 -190q-86 -74 -223 -75h-6q-61 0 -124 18q-204 58 -204 278q0 137 107 217q70 53 176 73q43 8 96 12l285 19q3 52 4 96v13q0 95 -27 155q-32 71 -109 101q-54 21 -139 22q-37 0 -82 -5q-62 -7 -123 -24 q-28 -8 -40 -12l-4 -176h-99l4 242q67 31 131 47q100 25 230 26h7q188 0 279 -102q73 -82 74 -234v-33q0 -95 -4 -310q0 -103 -4 -308h172v-90zM251 270q0 -91 63 -143t172 -53h5q141 0 225 110q49 65 69 139q15 57 15 179q-154 -3 -210 -7q-133 -9 -205 -34 q-134 -46 -134 -191z"/>
<glyph glyph-name="b" horiz-adv-x="1214" unicode="b" d="M311 1575l-4 -545q-1 -112 -10 -170q-6 -36 -12 -59h4q46 130 136 198q104 78 243 78q219 0 338 -168q93 -130 94 -321v-8q0 -263 -127 -425q-141 -180 -418 -180q-94 0 -191 22q-105 24 -167 60l8 1428h-205v90h311zM301 119q117 -52 258 -53h6q209 0 318 141 q101 131 102 353q0 178 -76 290q-87 127 -262 129h-4q-69 0 -133 -32q-125 -62 -180 -207q-27 -71 -27 -144z"/>
<glyph glyph-name="c" horiz-adv-x="1063" unicode="c" d="M856 946q-92 32 -227 33h-6q-191 0 -294 -126q-98 -119 -98 -327t98 -326q104 -126 300 -126q194 0 319 61v-104q-124 -55 -323 -56h-6q-240 0 -376 163q-124 148 -125 269.5t-1 125.5q0 235 138 391q138 151 380 153h6q174 0 313 -55v-256h-98v180z"/>
<glyph glyph-name="d" horiz-adv-x="1251" unicode="d" d="M1012 1575l-9 -1485h181v-90h-291q0 33 5 100q4 55 11 117h-4q-36 -88 -86 -139q-55 -57 -139 -83q-60 -19 -146 -20h-5q-79 0 -150 30q-62 26 -118 77q-89 81 -125 234q-18 78 -19 182v7q0 247 139.5 408.5t386.5 163.5h7q55 0 125 -14q69 -14 128 -37l4 459h-233v90 h338zM903 928q-47 19 -100 32q-76 19 -154 19q-209 0 -319 -136q-99 -122 -99 -345q0 -186 74 -297q84 -125 258 -127h3q154 0 244 120.5t91 335.5z"/>
<glyph glyph-name="e" horiz-adv-x="1100" unicode="e" d="M888 627q0 151 -80 246q-88 104 -252 106h-4q-115 0 -200 -64q-103 -77 -131 -219q-5 -25 -7 -69h674zM951 55q-47 -29 -142 -55q-89 -24 -194 -25h-6q-246 0 -381 154q-64 74 -97 179q-32 103 -32 241q0 224 119 371q128 157 344 157q165 0 268 -83q92 -74 135 -203 q37 -111 37 -254h-788q3 -225 105.5 -343.5t312.5 -119.5h3q155 0 320 88z"/>
<glyph glyph-name="f" horiz-adv-x="758" unicode="f" d="M125 90h154l4 873h-189v90h189l2 176q2 166 112 267q104 95 283 95q23 0 49 -2q61 -2 102 -12q29 -5 43 -10l-10 -97q-26 10 -79.5 20.5t-98.5 10.5q-145 0 -223 -81q-70 -73 -72 -203l-2 -164h299v-90h-299l-4 -873h190v-90h-450v90z"/>
<glyph glyph-name="g" horiz-adv-x="1100" unicode="g" d="M1095 954h-97q-16 0 -170 11l-4 -4q47 -33 82 -95q43 -77 43 -180q0 -255 -225 -352q-69 -30 -166 -31q-122 -1 -189 -37q-61 -33 -61 -80q0 -67 172 -98l340 -61q119 -21 175 -62q79 -58 79 -181q0 -124 -108 -213q-130 -108 -396 -110h-8q-328 0 -438 161 q-37 54 -37 126q0 98 84.5 172.5t196.5 89.5v4q-67 16 -110 47q-56 41 -56 114q0 102 123 141q17 5 65 14v4q-102 26 -171 93q-97 95 -97 259q0 120 63 217.5t175 142.5q74 30 169 31h6q100 0 173 -33h387v-90zM228 687q0 -121 77 -203q85 -89 237 -91h3q134 0 217 81 q81 79 81 214q0 124 -83 205q-86 84 -231 86h-3q-127 0 -212.5 -79t-85.5 -213zM476 -12q-100 -17 -176 -65q-106 -66 -106 -167q0 -81 97 -139q107 -64 285 -66h6q153 0 261 53q125 62 125 180q0 73 -53 109q-25 17 -61 29q-24 8 -79 21z"/>
<glyph glyph-name="h" horiz-adv-x="1327" unicode="h" d="M90 90h158l8 1395h-233v90h339l-4 -588q-1 -113 -22 -186h4q82 273 385 276h7q157 0 244 -85q102 -99 103 -326v-32q0 -156 -8 -544h166v-90h-430v90h158q1 64 5 284q3 177 3 285q0 318 -273 320h-2q-151 0 -248 -121q-91 -113 -92 -268l-4 -500h166v-90h-430v90z"/>
<glyph glyph-name="i" horiz-adv-x="606" unicode="i" d="M66 90h180l6 873h-203v90h309l-6 -963h189v-90h-475v90zM199 1489q0 100 98 102h3q42 0 68.5 -31t26.5 -75q0 -105 -98 -107h-3q-95 0 -95 111z"/>
<glyph glyph-name="j" horiz-adv-x="645" unicode="j" d="M100 1053h310l-11 -955q-1 -59 -9 -132q-26 -230 -166 -356q-112 -101 -312 -149l-16 93q171 34 265 135q80 85 111 224q21 94 23 265l8 785h-203v90zM250 1489q0 100 98 102h3q42 0 68.5 -31t26.5 -75q0 -105 -98 -107h-3q-95 0 -95 111z"/>
<glyph glyph-name="k" horiz-adv-x="1176" unicode="k" d="M90 90h158l8 1395h-233v90h339l-4 -993l451 376v5h-152v90h410v-90h-125l-465 -396l522 -477h113v-90h-405v90h147l-496 449l-4 -449h166v-90h-430v90z"/>
<glyph glyph-name="l" horiz-adv-x="647" unicode="l" d="M92 90h174l8 1395h-233v90h340l-8 -1485h182v-90h-463v90z"/>
<glyph glyph-name="m" horiz-adv-x="2007" unicode="m" d="M1487 90h158q1 64 5 284q3 177 3 285q0 318 -275 320h-2q-131 0 -224 -117q-89 -111 -91 -262l-8 -510h166v-90h-431v90h158l4 569q2 318 -266 320h-2q-137 0 -234 -117q-91 -110 -92 -262l-4 -510h166v-90h-428v90h156l4 873h-182v90h290q0 -125 -24 -252h4 q39 127 137.5 201t229.5 75h4q129 0 212 -65q80 -63 113 -185q22 52 60 102q49 65 115 102q80 45 196 46h6q176 0 265 -112q83 -106 83 -299q0 -184 -8 -576h166v-90h-430v90z"/>
<glyph glyph-name="n" horiz-adv-x="1327" unicode="n" d="M90 90h158l4 873h-184v90h292q0 -125 -24 -252h4q82 273 385 276h7q157 0 244 -85q102 -99 103 -326v-32q0 -156 -8 -544h166v-90h-430v90h158q1 64 5 284q3 177 3 285q0 318 -273 320h-2q-151 0 -248 -121q-91 -113 -92 -268l-4 -500h166v-90h-430v90z"/>
<glyph glyph-name="o" horiz-adv-x="1176" unicode="o" d="M215 526q0 -204 95 -326q98 -126 280 -126q178 0 279 126q96 120 96 326q0 205 -96 327q-99 126 -279 126q-181 0 -280 -126q-95 -121 -95 -327zM100 526v7q0 228 123 381q133 162 367 163h3q230 0 362 -163q122 -151 124 -388v-7q0 -228 -124 -381 q-131 -162 -248.5 -162.5t-119.5 -0.5q-232 0 -364 163q-121 150 -123 388z"/>
<glyph glyph-name="p" horiz-adv-x="1251" unicode="p" d="M74 -424h170l10 1387h-199v90h307q0 -133 -14 -222l6 5q59 118 136 174q43 31 100 49t131 18q208 0 324 -144q108 -133 108 -345q0 -271 -127 -433q-141 -180 -418 -180q-156 0 -254 37l-4 -436h191v-90h-467v90zM1038 560q0 186 -76 295q-86 124 -262 124 q-153 0 -246 -113q-97 -118 -98 -321l-2 -432q16 -8 46 -19q106 -28 212 -28q215 0 324 141q101 131 102 353z"/>
<glyph glyph-name="q" horiz-adv-x="1251" unicode="q" d="M903 928q-47 19 -100 32q-76 19 -154 19q-209 0 -319 -136q-99 -122 -99 -345q0 -186 74 -297q84 -125 258 -127h3q154 0 244 120.5t91 335.5zM721 -424h170l4 428v62q0 37 6 99q1 15 4 46h-4q-66 -167 -221 -216q-60 -19 -146 -20h-5q-79 0 -150 30q-62 26 -118 77 q-89 81 -125 234q-18 78 -19 182v7q0 246 142 408t394 164h5q121 0 268 -49l80 16l-9 -1468h197v-90h-473v90z"/>
<glyph glyph-name="r" horiz-adv-x="872" unicode="r" d="M100 90h168l8 873h-198v90h309q0 -156 -16 -338h4q67 245 223 330q57 31 129 32h6q65 0 141 -22l-16 -103q-45 19 -78 24q-21 3 -51 3h-4q-136 0 -240 -153t-106 -373l-4 -363h196v-90h-471v90z"/>
<glyph glyph-name="s" horiz-adv-x="985" unicode="s" d="M213 299l4 -178q38 -24 106.5 -39t149.5 -16h8q197 0 251 137q15 38 15 73q0 71 -39 114q-43 48 -141 71l-180 43q-136 33 -204 96q-75 70 -75 187q0 125 101 208q97 81 266 82h9q90 0 169.5 -18.5t141.5 -46.5l4 -240h-99l-4 170q-81 44 -215 45h-5q-105 0 -171 -42 q-82 -51 -82 -152q0 -154 178 -193l195 -43q266 -58 266 -270q0 -234 -235 -293q-72 -18 -162 -19h-7q-148 0 -275 44q-35 12 -62 26l-8 254h100z"/>
<glyph glyph-name="t" horiz-adv-x="797" unicode="t" d="M766 29q-64 -32 -161 -48q-37 -6 -81 -6q-265 0 -266 314q0 57 1 336q1 112 3 338h-184v90h184l4 274l107 8l-4 -282h350v-90h-350l-4 -637q-1 -208 94 -246q33 -13 90 -14h6q54 0 117 18.5t104 40.5z"/>
<glyph glyph-name="u" horiz-adv-x="1327" unicode="u" d="M365 1053q-1 -83 -5 -330q-4 -206 -4 -330q0 -156 57 -232q66 -87 216 -87q162 0 249 113t91 321l8 455h-189v90h295l-8 -963h164v-90h-268q0 122 24 252h-4q-37 -126 -136.5 -201t-229.5 -76h-8q-169 0 -260 87q-106 101 -107 325v32q0 156 8 544h-180v90h287z"/>
<glyph glyph-name="v" d="M160 963h-135v90h391v-90h-133l264 -750q8 -24 24 -123h4q13 80 29 123l273 750h-154v90h391v-90h-123l-370 -963h-99z" unicode="v"/>
<glyph glyph-name="w" horiz-adv-x="1706" unicode="w" d="M436 1053v-90h-151l284 -848h4l23 82l213 587l-61 179h-121v90h397v-90h-162l268 -848h5l26 98l264 750h-155v90h397v-90h-135l-348 -963h-115l-186 561q-11 34 -15 53.5t-12 57.5h-4q-11 -41 -37 -113l-199 -559h-106l-340 963h-131v90h397z"/>
<glyph glyph-name="x" horiz-adv-x="1176" unicode="x" d="M51 90h131l348 447l-317 426h-143v90h407v-90h-147q24 -24 49 -58l217 -295l221 295q27 36 49 58h-161v90h397v-90h-127l-322 -420l340 -453h131v-90h-397v90h141q-19 19 -47 57l-233 316l-240 -316q-25 -33 -49 -57h150v-90h-398v90z"/>
<glyph glyph-name="y" d="M422 1053v-90h-150l285 -777q9 -25 23 -77h4q3 31 18 73l272 781h-157v90h391v-90h-127l-367 -1026q-91 -253 -191 -359q-109 -115 -290 -117q-32 0 -68 6q-18 3 -55 11v100q43 -9 129 -18h4q207 0 301 223l80 190l-377 990h-137v90h412z" unicode="y"/>
<glyph glyph-name="z" horiz-adv-x="1063" unicode="z" d="M115 90l665 815q33 41 54 58h-584l-8 -185h-101l13 275h804v-90l-665 -816q-18 -22 -53 -57h608l12 195h101l-17 -285h-829v90z"/>
<glyph glyph-name="braceleft" horiz-adv-x="645" unicode="{" d="M256 1296q0 137 43 203q50 76 160 76h104v-90h-102q-25 0 -42 -8q-36 -12 -51 -75q-6 -25 -6 -75v-459q0 -170 -34.5 -244t-104.5 -92v-4q71 -16 105 -93t34 -242v-459q0 -125 57 -150q18 -8 42 -8h102v-90h-104q-56 0 -97 20q-76 37 -96 143q-10 53 -10 115v408 q0 169 -34 243q-29 64 -97 70v90q66 3 97 70q34 72 34 244v407z"/>
<glyph glyph-name="bar" horiz-adv-x="455" unicode="|" d="M178 1536h98v-2048h-98v2048z"/>
<glyph glyph-name="braceright" horiz-adv-x="645" unicode="}" d="M186 1575q162 0 193 -164q10 -53 10 -115v-407q0 -249 74 -296q23 -15 57 -18v-90q-68 -3 -98 -70q-33 -73 -33 -243v-408q0 -278 -203 -278h-104v90h102q24 0 41 8q36 12 51 75q7 29 7 75v459q0 165 33.5 241t105.5 94v4q-70 15 -105 93q-26 59 -32 159q-2 34 -2 84v459 q0 86 -27 124q-24 34 -72 34h-102v90h104z"/>
<glyph glyph-name="asciitilde" horiz-adv-x="1229" unicode="~" d="M141 465q41 78 93 120q68 55 163 56h3q108 0 233 -70l110 -48q50 -21 91 -21q53 0 102 46q24 22 78 93l73 -61q-31 -44 -104 -121q-71 -56 -152 -56q-75 0 -171 44q-19 8 -58 26q-75 38 -103 49q-55 20 -112 21h-2q-84 0 -142 -91q-12 -19 -28 -49z"/>
<glyph glyph-name="nonbreakingspace" horiz-adv-x="569" unicode=" "/>
<glyph glyph-name="exclamdown" horiz-adv-x="647" unicode="¡" d="M280 586h90l16 -1084h-123zM419 1000q0 -19 -8 -35q-11 -34 -50 -53q-17 -6 -36 -7h-5q-36 0 -62 28q-12 13 -19.5 32t-8.5 39v3q0 37 28 66q26 27 67 29h4q17 0 32 -8q31 -11 50 -52q8 -18 8 -42z"/>
<glyph glyph-name="cent" d="M598 973q-244 -26 -312 -279q-19 -71 -20 -168v-9q0 -180 81 -294q84 -120 247 -143zM594 -18q-214 17 -333 177q-109 146 -109 367q0 223 110 367q121 158 336 178l2 227h90l-2 -223q39 0 98 -6q86 -9 144 -28q25 -7 57 -19v-256h-98v180q-89 31 -201 31l-4 -901 q178 0 299 59v-104q-71 -31 -161 -44q-56 -9 -138 -10l-2 -251h-90z" unicode="¢"/>
<glyph glyph-name="sterling" d="M49 90h158q78 126 80 324v29q0 132 -8 264h-191v90h184q-7 71 -14 215v7q0 191 115 306q125 125 362 129h9q129 0 313 -53l-4 -262h-99l4 180q-115 36 -225 37h-8q-257 0 -330 -198q-21 -57 -22 -134v-22q0 -119 10 -205h324v-90h-320q0 -29 8 -119q4 -48 6 -150v-15 q0 -84 -20 -181q-22 -110 -59 -152h620l16 199h99l-17 -289h-991v90z" unicode="£"/>
<glyph glyph-name="currency" d="M172 403q-111 140 -111 314q0 193 115 313l-115 117l78 78l115 -113q132 111 315 113h6l121 -28q122 -28 189 -85l114 113l78 -78l-110 -111q108 -128 110 -319v-6q0 -77 -26 -158.5t-82 -151.5l108 -114l-78 -78l-108 119q-132 -117 -322 -119h-6q-182 0 -315 119 l-109 -119l-78 78zM160 714q0 -167 120 -287q118 -118 289 -120h3q166 0 286.5 120.5t120.5 289.5q0 167 -121 288t-289 121t-288.5 -120.5t-120.5 -291.5z" unicode="¤"/>
<glyph glyph-name="yen" d="M399 90h131l5 268h-302v78h302l2 209h-304v78h259l-340 620h-121v91h348v-91h-121l324 -618l317 618h-139v91h348v-91h-107l-323 -620h252v-78h-295l-2 -209h297v-78h-297l-4 -268h133v-90h-363v90z" unicode="¥"/>
<glyph glyph-name="brokenbar" horiz-adv-x="455" unicode="¦" d="M178 358h98v-716h-98v716zM178 1382h98v-716h-98v716z"/>
<glyph glyph-name="section" d="M850 1319q-35 13 -97 26.5t-135 14.5h-5q-152 0 -230 -65q-68 -56 -68 -146q0 -120 108 -191q28 -19 64 -38l258 -140q216 -117 216 -293q0 -78 -44 -150q-19 -31 -47.5 -59.5t-54.5 -44.5l-49 -30l57 -41q64 -46 97 -102q38 -65 38 -152q0 -62 -29 -123 q-59 -126 -215 -181q-77 -27 -179 -28h-6q-142 0 -296 50q-21 6 -55 18v264h90v-189q129 -43 267 -45h7q61 0 120 17q116 33 160 121q22 44 22 99q0 78 -57 140q-42 46 -117 86l-248 133q-117 63 -167 118q-69 76 -69 185q0 112 54 180q38 48 153 107q-105 66 -144 119 q-48 66 -48 164q0 157 131 242q112 73 284 73q104 0 191 -20q94 -22 141 -39v-238h-98v158zM418 778q-49 -29 -85 -80q-32 -46 -32 -118q0 -68 30.5 -111.5t100.5 -81.5l252 -137l57 41q54 39 78 76q31 48 31 117q0 63 -42 119q-35 46 -103 83l-230 125z" unicode="§"/>
<glyph glyph-name="dieresis" horiz-adv-x="569" unicode="¨" d="M413 1412q0 37 25.5 65.5t45.5 29t22 0.5q37 0 61.5 -29t25 -50t0.5 -22q0 -38 -25 -66t-45.5 -28.5t-22.5 -0.5q-38 0 -62.5 29t-24.5 72zM-22 1412q0 39 25 66.5t66 28.5h3q37 0 61.5 -29t25 -50t0.5 -22q0 -38 -25 -66t-65 -29h-3q-39 0 -63.5 29t-24.5 72z"/>
<glyph glyph-name="copyright" horiz-adv-x="1638" unicode="©" d="M1220 563q-48 -220 -244 -294q-59 -22 -131 -23h-6q-198 0 -322 136q-119 130 -121 335v7q0 200 119 331t324 131q234 0 336 -178q33 -58 45 -131h-107q-30 145 -171 194q-45 15 -103 16h-4q-112 0 -194.5 -59t-116.5 -165q-21 -66 -21 -146q0 -158 93 -263 q96 -108 249 -110h3q103 0 177 63q70 59 88 156h107zM79 721q0 198 101 370q151 257 443 340q95 27 197 27q203 0 374 -101q259 -153 341 -443q27 -95 27 -197q0 -202 -102 -375q-97 -165 -264.5 -265t-375.5 -102h-4q-198 0 -370 101q-260 153 -341 443q-26 95 -26 202z M177 713q0 -173 88 -321q84 -142 230 -229.5t325 -88.5h6q260 0 448.5 188.5t188.5 454.5q0 177 -89 325.5t-235 232.5t-319 85h-5q-261 0 -450 -189q-188 -188 -188 -458z"/>
<glyph glyph-name="ordfeminine" horiz-adv-x="705" unicode="ª" d="M710 815h-191q0 69 14 139v4h-4h-2q-27 -74 -79 -114q-59 -45 -146 -45q-227 0 -227 180q0 83 69 129q64 42 176 49l201 12l4 60q1 9 1 18q0 60 -31 95q-39 46 -148 47h-5q-67 0 -155 -25l-4 -100h-65l4 145q26 13 97 28q77 16 138 17h7q66 0 116 -18q127 -46 125 -205 l-4 -359h109v-57zM521 1110l-170 -8q-186 -9 -186 -127q0 -55 49 -86q41 -25 102 -25q87 0 146 57t59 140v49z"/>
<glyph glyph-name="guillemotleft" horiz-adv-x="948" unicode="«" d="M481 575l275 295l69 -63l-254 -275l244 -272l-70 -65l-264 294v86zM123 575l274 295l70 -63l-254 -275l244 -272l-70 -65l-264 294v86z"/>
<glyph glyph-name="logicalnot" horiz-adv-x="1229" unicode="¬" d="M1034 670h-938v98h1037v-541h-99v443z"/>
<glyph glyph-name="uni00AD" horiz-adv-x="797" unicode="­" d="M150 586h497v-107h-497v107z"/>
<glyph glyph-name="registered" horiz-adv-x="1638" unicode="®" d="M536 1167h346q292 0 293 -251q0 -161 -140 -223q-40 -18 -86 -25l266 -400h-110l-266 400h-205v-400h-98v899zM634 758h225q103 0 154 32q63 39 63 133q0 154 -217 154h-225v-319zM79 721q0 198 101 370q151 257 443 340q95 27 197 27q203 0 374 -101q259 -153 341 -443 q27 -95 27 -197q0 -202 -102 -375q-97 -165 -264.5 -265t-375.5 -102h-4q-198 0 -370 101q-260 153 -341 443q-26 95 -26 202zM177 713q0 -173 88 -321q84 -142 230 -229.5t325 -88.5h6q260 0 448.5 188.5t188.5 454.5q0 177 -89 325.5t-235 232.5t-319 85h-5 q-261 0 -450 -189q-188 -188 -188 -458z"/>
<glyph glyph-name="macron" horiz-adv-x="569" unicode="¯" d="M16 1473h537v-91h-537v91z"/>
<glyph glyph-name="degree" horiz-adv-x="819" unicode="°" d="M118 1164q0 119 84.5 203.5t208.5 86.5h3q118 0 203 -86t85.5 -147t0.5 -63q0 -119 -86 -205q-83 -83 -206 -85h-3q-120 0 -205 85t-85 211zM208 1158q0 -80 59 -141q56 -57 144 -59h3q81 0 140 59q57 57 59 144v3q0 81 -59 140t-143 60h-3q-81 0 -140.5 -59.5 t-59.5 -146.5z"/>
<glyph glyph-name="plusminus" horiz-adv-x="1229" unicode="±" d="M565 1036h99v-377h469v-98h-469v-377h-99v377h-469v98h469v377zM96 98h1037v-98h-1037v98z"/>
<glyph glyph-name="twosuperior" horiz-adv-x="682" unicode="²" d="M82 582v77l244 222q215 196 215 341q0 69 -49.5 113.5t-131.5 44.5q-109 0 -155 -79q-18 -31 -27 -71q0 -6 -2 -16h-98q0 35 16 76.5t43 72.5q44 51 119 75q49 15 115 16h5q81 0 145 -33q77 -38 102 -110q16 -47 16 -90q0 -92 -74 -200q-57 -82 -172 -187l-205 -187v-4 q12 1 44 7q27 5 44 5h373v-73h-567z"/>
<glyph glyph-name="threesuperior" horiz-adv-x="682" unicode="³" d="M92 690q29 -11 89 -31q75 -20 143 -20q87 0 152 43q75 50 75 134q0 137 -164 159q-59 8 -131 8h-18v74h18q96 0 168 40q90 50 90 156q0 59 -47 95q-41 31 -115 32h-5q-134 0 -164 -100q-5 -17 -7 -43h-98q0 78 63 141q75 75 213 76h5q109 0 175 -47q78 -56 78 -164 q0 -72 -62 -136q-49 -51 -136 -75v-4q28 -1 74 -13q91 -23 136 -98q25 -42 25 -102q0 -110 -88 -180t-244 -70q-96 0 -185 27q-24 7 -40 16v82z"/>
<glyph glyph-name="acute" horiz-adv-x="569" unicode="´" d="M119 1296l356 314l70 -64l-355 -305z"/>
<glyph glyph-name="mu" horiz-adv-x="1327" unicode="µ" d="M1239 0h-268q0 122 24 252h-4q-37 -126 -136.5 -200.5t-229.5 -76.5h-4q-80 0 -153 37t-112 101h-4q3 -36 4 -125q0 -32 -1 -250q-1 -167 -3 -252h-104l2 901q1 229 8 576h-180v90h287q-1 -83 -5 -330q-4 -206 -4 -330q0 -156 57 -232q66 -87 216 -87q153 0 249 116 q89 108 91 263l8 510h-189v90h295l-8 -963h164v-90z"/>
<glyph glyph-name="paragraph" horiz-adv-x="1229" unicode="¶" d="M520 655q-138 0 -237 109t-99 264q0 194 108 302q104 104 279 104h361v-1833h-98v1742h-216v-1742h-98v1054z"/>
<glyph glyph-name="periodcentered" horiz-adv-x="569" unicode="·" d="M170 598q0 48 33.5 81.5t81.5 33.5q47 0 80.5 -34t33.5 -81q0 -72 -70 -106q-19 -9 -44 -9q-48 0 -81.5 33.5t-33.5 81.5z"/>
<glyph glyph-name="cedilla" horiz-adv-x="569" unicode="¸" d="M342 16v-147h27q63 0 106 -39.5t43 -102.5q0 -72 -50 -117t-146 -46h-6q-109 0 -199 37l14 73q102 -34 162 -36q19 -1 45 4q46 8 64 37q10 17 10 43q0 73 -111 73h-41v221h82z"/>
<glyph glyph-name="onesuperior" horiz-adv-x="682" unicode="¹" d="M180 655h182l5 709l-240 -145l-37 63l291 172h76l-4 -799h184v-73h-457v73z"/>
<glyph glyph-name="ordmasculine" horiz-adv-x="705" unicode="º" d="M121 1128q0 -185 133 -245q41 -18 100 -19h3q107 0 170 74q61 72 61 194q0 111 -62 183.5t-172 73.5h-3q-109 0 -172 -77q-58 -72 -58 -184zM31 1128v6q0 133 80 222q88 98 243 98q79 0 141 -27q183 -80 183 -299q0 -139 -82 -232q-85 -96 -242 -97h-3q-154 0 -240 97 q-78 89 -80 232z"/>
<glyph glyph-name="guillemotright" horiz-adv-x="948" unicode="»" d="M467 489l-274 -294l-70 63l254 274l-244 273l70 65l264 -295v-86zM825 489l-274 -294l-70 63l254 274l-243 273l69 65l264 -295v-86z"/>
<glyph glyph-name="onequarter" horiz-adv-x="1708" unicode="¼" d="M1386 682q1 54 7 92h-4q-13 -29 -50 -78l-270 -358q11 0 34 2t34 2h245zM1280 74h98l4 194h-405v70l409 534h93l-4 -530h172v-74h-172l-5 -194h107v-74h-297v74zM348 -61l940 1605l74 -49l-940 -1606zM152 655h182l4 709l-240 -145l-37 63l291 172h76l-4 -799h184v-73 h-456v73z"/>
<glyph glyph-name="onehalf" horiz-adv-x="1708" unicode="½" d="M348 -61l940 1605l74 -49l-940 -1606zM152 655h182l4 709l-240 -145l-37 63l291 172h76l-4 -799h184v-73h-456v73zM1079 0v78l244 221q159 144 200 254q15 40 15 84q0 112 -106 150q-34 12 -74 12q-77 0 -124 -41.5t-58 -109.5q0 -6 -2 -15h-99q0 34 16 75.5t43 72.5 q44 51 119 75q49 15 115 16h5q81 0 145 -33q77 -38 102 -110q16 -46 16 -90q0 -91 -74 -199q-61 -88 -171 -188l-205 -186v-5q13 1 44 7q27 6 44 6h373v-74h-568z"/>
<glyph glyph-name="threequarters" horiz-adv-x="1708" unicode="¾" d="M1386 682q1 54 7 92h-4q-13 -29 -50 -78l-270 -358q11 0 34 2t34 2h245zM1280 74h98l4 194h-405v70l409 534h93l-4 -530h172v-74h-172l-5 -194h107v-74h-297v74zM348 -61l940 1605l74 -49l-940 -1606zM76 690q29 -11 89 -31q75 -20 142 -20q88 0 153 43q75 50 75 134 q0 137 -164 159q-59 8 -131 8h-19v74h19q96 0 168 40q90 50 90 156q0 59 -47 95q-41 31 -115 32h-6q-50 0 -84 -16q-69 -32 -83 -94q-3 -16 -3 -33h-99q0 78 63 141q75 75 214 76h5q109 0 175 -47q78 -56 78 -164q0 -72 -62 -136q-49 -50 -137 -75v-4q28 -1 74 -13 q92 -23 137 -98q25 -42 25 -102q0 -110 -88 -180t-244 -70q-96 0 -185 27q-24 7 -40 16v82z"/>
<glyph glyph-name="questiondown" horiz-adv-x="1024" unicode="¿" d="M635 616q37 -28 61 -62q39 -56 39 -122q0 -61 -28 -105q-24 -37 -91 -91l-196 -156q-131 -105 -131 -243q0 -93 62 -165q75 -86 218 -88h6q111 0 199 39l14 -100q-41 -14 -98 -25q-60 -12 -125 -12q-274 0 -365 208q-26 60 -26 133q0 178 152 300l184 149q46 37 57 48 q30 29 44 59q9 20 9 45q0 26 -8 43q-7 21 -17 33q-5 11 -21 25q-5 6 -17 18zM719 1000q0 -93 -94 -95h-4q-89 0 -91 99v4q0 92 95 94h4q90 0 90 -102z"/>
<glyph glyph-name="Agrave" horiz-adv-x="1479" unicode="À" d="M16 90h138l553 1344h114l492 -1344h149v-90h-450v90h178l-186 508h-533l-203 -508h191v-90h-443v90zM778 1225q-10 24 -24 78h-4q-3 -23 -11 -39q-8 -25 -14 -39l-217 -537h463zM504 1794l69 64l357 -314l-72 -55z"/>
<glyph glyph-name="Aacute" horiz-adv-x="1479" unicode="Á" d="M16 90h138l553 1344h114l492 -1344h149v-90h-450v90h178l-186 508h-533l-203 -508h191v-90h-443v90zM778 1225q-10 24 -24 78h-4q-3 -23 -11 -39q-8 -25 -14 -39l-217 -537h463zM598 1544l356 314l70 -64l-354 -305z"/>
<glyph glyph-name="Acircumflex" horiz-adv-x="1479" unicode="Â" d="M16 90h138l553 1344h114l492 -1344h149v-90h-450v90h178l-186 508h-533l-203 -508h191v-90h-443v90zM778 1225q-10 24 -24 78h-4q-3 -23 -11 -39q-8 -25 -14 -39l-217 -537h463zM768 1755l-240 -262l-67 61l258 283h98l250 -283l-72 -61z"/>
<glyph glyph-name="Atilde" horiz-adv-x="1479" unicode="Ã" d="M16 90h138l553 1344h114l492 -1344h149v-90h-450v90h178l-186 508h-533l-203 -508h191v-90h-443v90zM778 1225q-10 24 -24 78h-4q-3 -23 -11 -39q-8 -25 -14 -39l-217 -537h463zM1104 1704l-19 -31q-25 -40 -70 -71q-50 -34 -118 -35h-2q-57 0 -143 54q-83 52 -123 52 q-34 0 -66 -27q-23 -19 -45 -51l-14 -20l-80 53l16 27q26 44 69 77q52 40 118 40q74 0 157 -52q57 -36 74 -45t47 -10h3q31 0 59 23q10 8 49 47l16 22z"/>
<glyph glyph-name="Adieresis" horiz-adv-x="1479" unicode="Ä" d="M16 90h138l553 1344h114l492 -1344h149v-90h-450v90h178l-186 508h-533l-203 -508h191v-90h-443v90zM778 1225q-10 24 -24 78h-4q-3 -23 -11 -39q-8 -25 -14 -39l-217 -537h463zM891 1660q0 37 25.5 65.5t45.5 29t22 0.5q37 0 61.5 -29t25 -50t0.5 -22q0 -38 -25 -66 t-45.5 -28.5t-22.5 -0.5q-38 0 -62.5 29t-24.5 72zM457 1660q0 37 25.5 65.5t45.5 29t22 0.5q37 0 61.5 -29t25 -50t0.5 -22q0 -38 -25 -66t-45.5 -28.5t-22.5 -0.5q-38 0 -62.5 29t-24.5 72z"/>
<glyph glyph-name="Aring" horiz-adv-x="1479" unicode="Å" d="M16 90h138l553 1344h114l492 -1344h149v-90h-450v90h178l-186 508h-533l-203 -508h191v-90h-443v90zM778 1225q-10 24 -24 78h-4q-3 -23 -11 -39q-8 -25 -14 -39l-217 -537h463zM578 1677q0 117 114 168q34 15 72 15q74 0 130 -54t56 -133q0 -77 -53.5 -130.5 t-132.5 -55.5h-5q-74 0 -127 54q-54 54 -54 136zM659 1668q0 -70 61 -98q20 -9 44 -9q102 0 104 112v3q0 46 -28.5 78t-75.5 32q-68 0 -98 -70q-7 -24 -7 -48z"/>
<glyph glyph-name="AE" horiz-adv-x="1972" unicode="Æ" d="M899 90h166l4 555h-508l-309 -555h180v-90h-442v90h139l762 1344h907l4 -289h-98l-4 198h-512l-4 -608h504v-90h-504l-4 -555h567l12 215h101l-17 -305h-944v90zM1069 735l4 608h-127l-340 -608h463z"/>
<glyph glyph-name="Ccedilla" horiz-adv-x="1403" unicode="Ç" d="M770 -20q-297 15 -471 200q-147 156 -176 400q-8 65 -8 137q0 346 211 546q204 193 548 195h7q219 0 393 -65l-4 -287h-107l4 215q-142 38 -301 39h-6q-284 0 -457.5 -173.5t-173.5 -471.5v-10q3 -300 169.5 -464.5t455.5 -166.5h14l148 10q85 11 129 22l2 222h106 l-2 -297q-31 -5 -79 -17q-6 -2 -94 -17q-109 -19 -226 -22v-106h27q63 0 106 -39.5t43 -102.5q0 -72 -50 -117t-147 -46h-6q-108 0 -198 37l14 73q102 -34 162 -36q19 -1 45 4q46 8 64 37q10 17 10 43q0 73 -111 73h-41v185z"/>
<glyph glyph-name="Egrave" horiz-adv-x="1176" unicode="È" d="M102 90h164l8 1253h-172v91h924v-287h-90v196h-547l-4 -573h498v-90h-498l-4 -590h567l17 213h98l-16 -303h-945v90zM328 1794l69 64l357 -314l-72 -55z"/>
<glyph glyph-name="Eacute" horiz-adv-x="1176" unicode="É" d="M102 90h164l8 1253h-172v91h924v-287h-90v196h-547l-4 -573h498v-90h-498l-4 -590h567l17 213h98l-16 -303h-945v90zM422 1544l356 314l70 -64l-354 -305z"/>
<glyph glyph-name="Ecircumflex" horiz-adv-x="1176" unicode="Ê" d="M102 90h164l8 1253h-172v91h924v-287h-90v196h-547l-4 -573h498v-90h-498l-4 -590h567l17 213h98l-16 -303h-945v90zM592 1755l-240 -262l-67 61l258 283h98l250 -283l-72 -61z"/>
<glyph glyph-name="Edieresis" horiz-adv-x="1176" unicode="Ë" d="M102 90h164l8 1253h-172v91h924v-287h-90v196h-547l-4 -573h498v-90h-498l-4 -590h567l17 213h98l-16 -303h-945v90zM715 1660q0 37 25.5 65.5t45.5 29t22 0.5q37 0 61.5 -29t25 -50t0.5 -22q0 -38 -25 -66t-45.5 -28.5t-22.5 -0.5q-38 0 -62.5 29t-24.5 72zM281 1661 q0 92 90 94h3q37 0 61.5 -29t25 -50t0.5 -22q0 -38 -25 -66t-65 -29h-3q-87 0 -87 102z"/>
<glyph glyph-name="Igrave" horiz-adv-x="684" unicode="Ì" d="M117 0v90h164l8 1253h-172v91h450v-91h-164l-8 -1253h172v-90h-450zM82 1794l70 64l356 -314l-72 -55z"/>
<glyph glyph-name="Iacute" horiz-adv-x="684" unicode="Í" d="M117 0v90h164l8 1253h-172v91h450v-91h-164l-8 -1253h172v-90h-450zM176 1544l356 314l70 -64l-354 -305z"/>
<glyph glyph-name="Icircumflex" horiz-adv-x="684" unicode="Î" d="M117 0v90h164l8 1253h-172v91h450v-91h-164l-8 -1253h172v-90h-450zM346 1755l-240 -262l-67 61l258 283h98l250 -283l-72 -61z"/>
<glyph glyph-name="Idieresis" horiz-adv-x="684" unicode="Ï" d="M118 0v90h164l8 1253h-172v91h450v-91h-164l-8 -1253h172v-90h-450zM470 1660q0 37 25.5 65.5t45.5 29t22 0.5q37 0 61.5 -29t25 -50t0.5 -22q0 -38 -25 -66t-45.5 -28.5t-22.5 -0.5q-38 0 -62.5 29t-24.5 72zM36 1660q0 37 25.5 65.5t45.5 29t22 0.5q37 0 61.5 -29 t25 -50t0.5 -22q0 -38 -25 -66t-45.5 -28.5t-22.5 -0.5q-38 0 -62.5 29t-24.5 72z"/>
<glyph glyph-name="Eth" horiz-adv-x="1554" unicode="Ð" d="M102 90h164l4 639h-180v98h180l4 516h-172v91h627q350 0 538 -186q184 -183 185 -529q0 -334 -189 -523q-196 -196 -563 -196h-598v90zM852 729h-467l-4 -639h352q284 0 447 182q156 173 157 453v7q0 149 -44 264q-87 229 -327 308q-119 39 -266 39h-311l-4 -516h467v-98 z"/>
<glyph glyph-name="Ntilde" horiz-adv-x="1630" unicode="Ñ" d="M84 90h166l8 1253h-195v91h312l872 -1194q13 -17 43 -78h4l6 1181h-200v91h467v-91h-158l-10 -1343h-115l-874 1198q-23 31 -41 74h-4l-9 -1182h189v-90h-461v90zM1155 1704l-18 -31q-7 -12 -31 -37q-65 -67 -158 -69h-2q-55 0 -143 54q-85 52 -123 52q-34 0 -66 -27 q-23 -19 -45 -51l-14 -20l-80 53l17 27q30 48 69 77q54 40 117 40q47 0 87 -17q47 -20 131 -73q25 -16 60 -17h3q31 0 59 23q10 8 49 47l16 22z"/>
<glyph glyph-name="Ograve" horiz-adv-x="1552" unicode="Ò" d="M1440 717v-7q0 -371 -206 -569q-171 -165 -456 -166h-3q-332 0 -504 212q-152 188 -154 530v8q0 316 156 513q174 220 505 220q337 0 508 -213q152 -189 154 -528zM1325 717v7q0 145 -38 266q-75 239 -281 327q-99 42 -228 43h-4q-186 0 -318.5 -96t-187.5 -274 q-37 -120 -37 -277q0 -303 145.5 -470t401.5 -169h6q121 0 222 43q206 86 281 326q37 119 38 274zM518 1794l70 64l356 -314l-72 -55z"/>
<glyph glyph-name="Oacute" horiz-adv-x="1552" unicode="Ó" d="M1440 717v-7q0 -371 -206 -569q-171 -165 -456 -166h-3q-332 0 -504 212q-152 188 -154 530v8q0 316 156 513q174 220 505 220q337 0 508 -213q152 -189 154 -528zM1325 717v7q0 145 -38 266q-75 239 -281 327q-99 42 -228 43h-4q-186 0 -318.5 -96t-187.5 -274 q-37 -120 -37 -277q0 -303 145.5 -470t401.5 -169h6q121 0 222 43q206 86 281 326q37 119 38 274zM612 1544l357 314l69 -64l-354 -305z"/>
<glyph glyph-name="Ocircumflex" horiz-adv-x="1552" unicode="Ô" d="M1440 717v-7q0 -371 -206 -569q-171 -165 -456 -166h-3q-332 0 -504 212q-152 188 -154 530v8q0 316 156 513q174 220 505 220q337 0 508 -213q152 -189 154 -528zM1325 717v7q0 145 -38 266q-75 239 -281 327q-99 42 -228 43h-4q-186 0 -318.5 -96t-187.5 -274 q-37 -120 -37 -277q0 -303 145.5 -470t401.5 -169h6q121 0 222 43q206 86 281 326q37 119 38 274zM782 1755l-239 -262l-68 61l258 283h98l250 -283l-71 -61z"/>
<glyph glyph-name="Otilde" horiz-adv-x="1552" unicode="Õ" d="M1440 717v-7q0 -371 -206 -569q-171 -165 -456 -166h-3q-332 0 -504 212q-152 188 -154 530v8q0 316 156 513q174 220 505 220q337 0 508 -213q152 -189 154 -528zM1325 717v7q0 145 -38 266q-75 239 -281 327q-99 42 -228 43h-4q-186 0 -318.5 -96t-187.5 -274 q-37 -120 -37 -277q0 -303 145.5 -470t401.5 -169h6q121 0 222 43q206 86 281 326q37 119 38 274zM1118 1704l-18 -31q-7 -12 -31 -37q-65 -67 -158 -69h-2q-55 0 -143 54q-85 52 -123 52q-34 0 -66 -27q-23 -19 -45 -51l-14 -20l-80 53l17 27q30 48 69 77q54 40 117 40 q75 0 158 -52q57 -36 74 -45t47 -10h3q31 0 59 23q22 18 48 47l16 22z"/>
<glyph glyph-name="Odieresis" horiz-adv-x="1552" unicode="Ö" d="M1440 717v-7q0 -371 -206 -569q-171 -165 -456 -166h-3q-332 0 -504 212q-152 188 -154 530v8q0 316 156 513q174 220 505 220q337 0 508 -213q152 -189 154 -528zM1325 717v7q0 145 -38 266q-75 239 -281 327q-99 42 -228 43h-4q-186 0 -318.5 -96t-187.5 -274 q-37 -120 -37 -277q0 -303 145.5 -470t401.5 -169h6q121 0 222 43q206 86 281 326q37 119 38 274zM905 1660q0 37 25.5 65.5t45.5 29t22 0.5q37 0 61.5 -29t25 -50t0.5 -22q0 -38 -25 -66t-45.5 -28.5t-22.5 -0.5q-38 0 -62.5 29t-24.5 72zM471 1660q0 37 25.5 65.5t45.5 29 t22 0.5q37 0 61.5 -29t25 -50t0.5 -22q0 -38 -25 -66t-45.5 -28.5t-22.5 -0.5q-38 0 -62.5 29t-24.5 72z"/>
<glyph glyph-name="multiply" horiz-adv-x="1229" unicode="×" d="M612 446l-387 -391l-73 74l389 389l-389 389l73 74l387 -391l392 391l73 -74l-389 -389l389 -389l-73 -74z"/>
<glyph glyph-name="Oslash" horiz-adv-x="1552" unicode="Ø" d="M498 143q118 -68 280 -69h5q120 0 223 43q206 86 281 326q37 119 38 274v7q0 161 -44.5 287.5t-127.5 207.5zM1077 1280q-125 79 -299 80h-4q-186 0 -318.5 -96t-187.5 -274q-36 -117 -37 -273v-7q0 -343 187 -509zM358 102q-122 93 -184 258q-56 149 -57 357v8 q0 316 156 513q174 220 505 220q207 0 357 -84l143 234l82 -49l-146 -240q114 -96 172 -257q53 -145 54 -345v-7q0 -370 -206 -569q-171 -164 -456 -166h-9q-90 0 -177 20t-152 54l-153 -250l-82 49z"/>
<glyph glyph-name="Ugrave" horiz-adv-x="1556" unicode="Ù" d="M541 1434v-91h-168q-1 -90 -5 -398q-3 -247 -3 -398q0 -276 87 -374t336 -99h4q240 0 325 121q76 107 79 411l8 737h-180v91h457v-91h-162l-8 -786q-2 -185 -41 -301q-45 -133 -156 -205q-115 -75 -330 -76h-6q-221 0 -343 73q-109 65 -152 196q-33 100 -33 284 q0 206 3 408l5 407h-182v91h465zM518 1794l70 64l356 -314l-72 -55z"/>
<glyph glyph-name="Uacute" horiz-adv-x="1556" unicode="Ú" d="M541 1434v-91h-168q-1 -90 -5 -398q-3 -247 -3 -398q0 -276 87 -374t336 -99h4q240 0 325 121q76 107 79 411l8 737h-180v91h457v-91h-162l-8 -786q-2 -185 -41 -301q-45 -133 -156 -205q-115 -75 -330 -76h-6q-221 0 -343 73q-109 65 -152 196q-33 100 -33 284 q0 206 3 408l5 407h-182v91h465zM612 1544l357 314l69 -64l-354 -305z"/>
<glyph glyph-name="Ucircumflex" horiz-adv-x="1556" unicode="Û" d="M541 1434v-91h-168q-1 -90 -5 -398q-3 -247 -3 -398q0 -276 87 -374t336 -99h4q240 0 325 121q76 107 79 411l8 737h-180v91h457v-91h-162l-8 -786q-2 -185 -41 -301q-45 -133 -156 -205q-115 -75 -330 -76h-6q-221 0 -343 73q-109 65 -152 196q-33 100 -33 284 q0 206 3 408l5 407h-182v91h465zM782 1755l-239 -262l-68 61l258 283h98l250 -283l-71 -61z"/>
<glyph glyph-name="Udieresis" horiz-adv-x="1556" unicode="Ü" d="M541 1434v-91h-168q-1 -90 -5 -398q-3 -247 -3 -398q0 -276 87 -374t336 -99h4q240 0 325 121q76 107 79 411l8 737h-180v91h457v-91h-162l-8 -786q-2 -185 -41 -301q-45 -133 -156 -205q-115 -75 -330 -76h-6q-221 0 -343 73q-109 65 -152 196q-33 100 -33 284 q0 206 3 408l5 407h-182v91h465zM926 1660q0 37 25.5 65.5t45.5 29t22 0.5q37 0 61.5 -29t25 -50t0.5 -22q0 -38 -25 -66t-45.5 -28.5t-22.5 -0.5q-38 0 -62.5 29t-24.5 72zM492 1661q0 92 90 94h3q37 0 61.5 -29t25 -50t0.5 -22q0 -38 -25 -66t-65 -29h-3q-87 0 -87 102z "/>
<glyph glyph-name="Yacute" horiz-adv-x="1442" unicode="Ý" d="M508 90h166l8 549l-516 704h-154v91h441v-91h-154q21 -21 41 -49l397 -553l400 553q12 18 41 49h-189v91h441v-91h-136l-497 -704l-9 -549h179v-90h-459v90zM627 1544l356 314l70 -64l-355 -305z"/>
<glyph glyph-name="Thorn" d="M383 446h215q148 0 238 80q97 85 98 251q0 155 -107 239q-96 76 -262 76h-178zM102 90h164l8 1253h-172v91h451v-91h-164v-161h150q140 0 234 -26q196 -54 254 -224q21 -62 22 -152v-6q0 -185 -125.5 -305.5t-331.5 -120.5h-209l-2 -258h172v-90h-451v90z" unicode="Þ"/>
<glyph glyph-name="germandbls" horiz-adv-x="1403" unicode="ß" d="M111 90h165l9 873h-205v90h205l2 98q2 112 42 195q81 171 277 225q69 19 168 20h10q196 0 309 -81q109 -78 111 -220v-6q0 -47 -14 -89q-33 -102 -156 -171l-178 -100q-119 -67 -119 -166q0 -100 176 -154l166 -51q97 -30 151 -99q58 -74 58 -159q0 -210 -199 -285 q-67 -25 -165 -26h-13q-98 0 -175 14q-74 14 -105 27v260h90v-191q77 -18 213 -20h3q116 0 186 66q59 56 59 136q0 131 -146 181l-239 82q-121 42 -156 154q-9 30 -10 69v5q0 106 82 173q27 22 67 45l189 109q129 74 129 196q0 100 -100 160q-85 51 -224 51q-178 0 -276 -89 q-105 -96 -107 -292l-8 -1030h139v-90h-411v90z"/>
<glyph glyph-name="agrave" horiz-adv-x="1176" unicode="à" d="M1070 0h-274q0 72 13 181q4 37 9 59h-4q-47 -126 -121 -190q-86 -74 -223 -75h-6q-61 0 -124 18q-204 58 -204 278q0 137 107 217q70 53 176 73q43 8 96 12l285 19q3 52 4 96v13q0 95 -27 155q-32 71 -109 101q-54 21 -139 22q-37 0 -82 -5q-62 -7 -123 -24 q-28 -8 -40 -12l-4 -176h-99l4 242q67 31 131 47q100 25 230 26h7q188 0 279 -102q73 -82 74 -234v-33q0 -95 -4 -310q0 -103 -4 -308h172v-90zM251 270q0 -91 63 -143t172 -53h5q141 0 225 110q49 65 69 139q15 57 15 179q-154 -3 -210 -7q-133 -9 -205 -34 q-134 -46 -134 -191zM267 1546l70 64l356 -314l-71 -55z"/>
<glyph glyph-name="aacute" horiz-adv-x="1176" unicode="á" d="M1070 0h-274q0 72 13 181q4 37 9 59h-4q-47 -126 -121 -190q-86 -74 -223 -75h-6q-61 0 -124 18q-204 58 -204 278q0 137 107 217q70 53 176 73q43 8 96 12l285 19q3 52 4 96v13q0 95 -27 155q-32 71 -109 101q-54 21 -139 22q-37 0 -82 -5q-62 -7 -123 -24 q-28 -8 -40 -12l-4 -176h-99l4 242q67 31 131 47q100 25 230 26h7q188 0 279 -102q73 -82 74 -234v-33q0 -95 -4 -310q0 -103 -4 -308h172v-90zM251 270q0 -91 63 -143t172 -53h5q141 0 225 110q49 65 69 139q15 57 15 179q-154 -3 -210 -7q-133 -9 -205 -34 q-134 -46 -134 -191zM361 1296l357 314l69 -64l-354 -305z"/>
<glyph glyph-name="acircumflex" horiz-adv-x="1176" unicode="â" d="M1070 0h-274q0 72 13 181q4 37 9 59h-4q-47 -126 -121 -190q-86 -74 -223 -75h-6q-61 0 -124 18q-204 58 -204 278q0 137 107 217q70 53 176 73q43 8 96 12l285 19q3 52 4 96v13q0 95 -27 155q-32 71 -109 101q-54 21 -139 22q-37 0 -82 -5q-62 -7 -123 -24 q-28 -8 -40 -12l-4 -176h-99l4 242q67 31 131 47q100 25 230 26h7q188 0 279 -102q73 -82 74 -234v-33q0 -95 -4 -310q0 -103 -4 -308h172v-90zM251 270q0 -91 63 -143t172 -53h5q141 0 225 110q49 65 69 139q15 57 15 179q-154 -3 -210 -7q-133 -9 -205 -34 q-134 -46 -134 -191zM531 1507l-239 -262l-68 62l258 282h99l249 -282l-71 -62z"/>
<glyph glyph-name="atilde" horiz-adv-x="1176" unicode="ã" d="M1070 0h-274q0 72 13 181q4 37 9 59h-4q-47 -126 -121 -190q-86 -74 -223 -75h-6q-61 0 -124 18q-204 58 -204 278q0 137 107 217q70 53 176 73q43 8 96 12l285 19q3 52 4 96v13q0 95 -27 155q-32 71 -109 101q-54 21 -139 22q-37 0 -82 -5q-62 -7 -123 -24 q-28 -8 -40 -12l-4 -176h-99l4 242q67 31 131 47q100 25 230 26h7q188 0 279 -102q73 -82 74 -234v-33q0 -95 -4 -310q0 -103 -4 -308h172v-90zM251 270q0 -91 63 -143t172 -53h5q141 0 225 110q49 65 69 139q15 57 15 179q-154 -3 -210 -7q-133 -9 -205 -34 q-134 -46 -134 -191zM867 1456l-18 -31q-7 -12 -31 -37q-65 -67 -158 -69h-2q-55 0 -143 54q-85 52 -123 52q-34 0 -66 -27q-21 -18 -44 -50l-15 -21l-80 53l17 27q29 47 69 77q52 40 117 40q74 0 158 -51q93 -56 121 -56q33 0 62.5 23.5t47.5 46.5l17 22z"/>
<glyph glyph-name="adieresis" horiz-adv-x="1176" unicode="ä" d="M1070 0h-274q0 72 13 181q4 37 9 59h-4q-47 -126 -121 -190q-86 -74 -223 -75h-6q-61 0 -124 18q-204 58 -204 278q0 137 107 217q70 53 176 73q43 8 96 12l285 19q3 52 4 96v13q0 95 -27 155q-32 71 -109 101q-54 21 -139 22q-37 0 -82 -5q-62 -7 -123 -24 q-28 -8 -40 -12l-4 -176h-99l4 242q67 31 131 47q100 25 230 26h7q188 0 279 -102q73 -82 74 -234v-33q0 -95 -4 -310q0 -103 -4 -308h172v-90zM251 270q0 -91 63 -143t172 -53h5q141 0 225 110q49 65 69 139q15 57 15 179q-154 -3 -210 -7q-133 -9 -205 -34 q-134 -46 -134 -191zM654 1412q0 37 25.5 65.5t64.5 29.5h3q39 0 63 -28.5t24.5 -50t0.5 -22.5q0 -39 -25 -66.5t-66 -28.5h-3q-38 0 -62.5 29t-24.5 72zM220 1412q0 37 25.5 65.5t45.5 29t22 0.5q37 0 61.5 -29t25 -50t0.5 -22q0 -38 -25 -66t-45.5 -28.5t-22.5 -0.5 q-38 0 -62.5 29t-24.5 72z"/>
<glyph glyph-name="aring" horiz-adv-x="1176" unicode="å" d="M1070 0h-274q0 72 13 181q4 37 9 59h-4q-47 -126 -121 -190q-86 -74 -223 -75h-6q-61 0 -124 18q-204 58 -204 278q0 137 107 217q70 53 176 73q43 8 96 12l285 19q3 52 4 96v13q0 95 -27 155q-32 71 -109 101q-54 21 -139 22q-37 0 -82 -5q-62 -7 -123 -24 q-28 -8 -40 -12l-4 -176h-99l4 242q67 31 131 47q100 25 230 26h7q188 0 279 -102q73 -82 74 -234v-33q0 -95 -4 -310q0 -103 -4 -308h172v-90zM251 270q0 -91 63 -143t172 -53h5q141 0 225 110q49 65 69 139q15 57 15 179q-154 -3 -210 -7q-133 -9 -205 -34 q-134 -46 -134 -191zM341 1429q0 117 114 168q34 15 72 15q75 0 131 -54t56 -133q0 -77 -53.5 -130.5t-133.5 -55.5h-3q-75 0 -129 54t-54 136zM423 1422q0 -45 28.5 -77t75.5 -32q73 0 97 68q7 20 8 44v5q0 20 -7 39.5t-22 34.5q-27 34 -76 34q-104 0 -104 -116z"/>
<glyph glyph-name="ae" horiz-adv-x="1782" unicode="æ" d="M934 512v-98q0 -166 99 -253t267 -87q178 0 312 78v-107q-36 -24 -125 -46q-93 -23 -201 -24h-7q-69 0 -138 19q-139 38 -215 138q-37 49 -54 114h-4q-49 -187 -244 -250q-65 -21 -143 -21q-143 0 -238 73q-108 83 -108 233q0 135 102 215q108 85 320 94l270 12v72 q0 303 -311 305h-6q-128 0 -240 -41l-4 -176h-98l4 242q94 44 253 65q56 8 107 8h4q130 0 224.5 -59t132.5 -158q41 89 115 144q99 73 237 73q240 0 344 -168q83 -133 86 -397h-741zM827 512l-247 -12q-153 -7 -232 -51q-98 -54 -98 -169q0 -87 62 -143q68 -62 194 -63h5 q145 0 237 117q79 99 79 227v94zM1561 602q0 253 -168 343q-62 33 -152 34h-5q-74 0 -133 -27q-113 -51 -151 -195q-18 -68 -18 -155h627z"/>
<glyph glyph-name="ccedilla" horiz-adv-x="1063" unicode="ç" d="M856 946q-92 32 -227 33h-6q-191 0 -294 -126q-98 -119 -98 -327t98 -326q104 -126 300 -126q194 0 319 61v-104q-54 -24 -139 -41q-63 -12 -156 -15v-106h27q63 0 106 -39.5t43 -102.5q0 -72 -50 -117t-146 -46h-6q-112 0 -199 37l14 73q102 -34 162 -36q19 -1 45 4 q46 8 64 37q10 17 10 43q0 73 -111 73h-41v180q-222 18 -342 177q-110 147 -112 374v7q0 231 126 381q136 161 382 163h7q184 0 322 -55v-256h-98v180z"/>
<glyph glyph-name="egrave" horiz-adv-x="1100" unicode="è" d="M888 627q0 151 -80 246q-88 104 -252 106h-4q-115 0 -200 -64q-103 -77 -131 -219q-5 -25 -7 -69h674zM951 55q-47 -29 -142 -55q-89 -24 -194 -25h-6q-246 0 -381 154q-64 74 -97 179q-32 103 -32 241q0 224 119 371q128 157 344 157q165 0 268 -83q92 -74 135 -203 q37 -111 37 -254h-788q3 -225 105.5 -343.5t312.5 -119.5h3q155 0 320 88zM316 1546l70 64l356 -314l-71 -55z"/>
<glyph glyph-name="eacute" horiz-adv-x="1100" unicode="é" d="M888 627q0 151 -80 246q-88 104 -252 106h-4q-115 0 -200 -64q-103 -77 -131 -219q-5 -25 -7 -69h674zM951 55q-47 -29 -142 -55q-89 -24 -194 -25h-6q-246 0 -381 154q-64 74 -97 179q-32 103 -32 241q0 224 119 371q128 157 344 157q165 0 268 -83q92 -74 135 -203 q37 -111 37 -254h-788q3 -225 105.5 -343.5t312.5 -119.5h3q155 0 320 88zM427 1296l356 314l70 -64l-354 -305z"/>
<glyph glyph-name="ecircumflex" horiz-adv-x="1100" unicode="ê" d="M888 627q0 151 -80 246q-88 104 -252 106h-4q-115 0 -200 -64q-103 -77 -131 -219q-5 -25 -7 -69h674zM951 55q-47 -29 -142 -55q-89 -24 -194 -25h-6q-246 0 -381 154q-64 74 -97 179q-32 103 -32 241q0 224 119 371q128 157 344 157q165 0 268 -83q92 -74 135 -203 q37 -111 37 -254h-788q3 -225 105.5 -343.5t312.5 -119.5h3q155 0 320 88zM581 1507l-240 -262l-68 62l258 282h99l250 -282l-72 -62z"/>
<glyph glyph-name="edieresis" horiz-adv-x="1100" unicode="ë" d="M888 627q0 151 -80 246q-88 104 -252 106h-4q-115 0 -200 -64q-103 -77 -131 -219q-5 -25 -7 -69h674zM951 55q-47 -29 -142 -55q-89 -24 -194 -25h-6q-246 0 -381 154q-64 74 -97 179q-32 103 -32 241q0 224 119 371q128 157 344 157q165 0 268 -83q92 -74 135 -203 q37 -111 37 -254h-788q3 -225 105.5 -343.5t312.5 -119.5h3q155 0 320 88zM703 1412q0 39 25 66.5t66 28.5h3q37 0 61.5 -29t25 -50t0.5 -22q0 -38 -25 -66t-65 -29h-3q-39 0 -63.5 29t-24.5 72zM269 1412q0 37 25.5 65.5t64.5 29.5h3q39 0 63 -28.5t24.5 -50t0.5 -22.5 q0 -39 -25 -66.5t-66 -28.5h-3q-38 0 -62.5 29t-24.5 72z"/>
<glyph glyph-name="igrave" horiz-adv-x="606" unicode="ì" d="M66 90h180l6 873h-203v90h309l-6 -963h189v-90h-475v90zM23 1546l69 64l357 -314l-72 -55z"/>
<glyph glyph-name="iacute" horiz-adv-x="606" unicode="í" d="M66 90h180l6 873h-203v90h309l-6 -963h189v-90h-475v90zM137 1296l357 314l69 -64l-354 -305z"/>
<glyph glyph-name="icircumflex" horiz-adv-x="606" unicode="î" d="M66 90h180l6 873h-203v90h309l-6 -963h189v-90h-475v90zM287 1507l-240 -262l-67 62l258 282h98l250 -282l-72 -62z"/>
<glyph glyph-name="idieresis" horiz-adv-x="606" unicode="ï" d="M67 90h180l6 873h-203v90h309l-6 -963h189v-90h-475v90zM411 1412q0 37 25.5 65.5t45.5 29t22 0.5q37 0 61.5 -29t25 -50t0.5 -22q0 -38 -25 -66t-45.5 -28.5t-22.5 -0.5q-38 0 -62.5 29t-24.5 72zM-24 1412q0 39 25 66.5t66 28.5h3q37 0 61.5 -29t25 -50t0.5 -22 q0 -38 -25 -66t-65 -29h-3q-39 0 -63.5 29t-24.5 72z"/>
<glyph glyph-name="eth" horiz-adv-x="1176" unicode="ð" d="M215 526q0 -204 95 -326q98 -126 280 -126q178 0 279 126q96 120 96 326q0 205 -96 327q-99 126 -279 126q-181 0 -280 -126q-95 -121 -95 -327zM338 1313l188 112q-57 51 -153 115l92 51q25 -17 74 -55q45 -35 69 -59l189 114l61 -61l-184 -113l57 -61 q169 -180 255 -376q93 -210 93 -476q0 -161 -68 -286q-72 -135 -209 -200q-89 -42 -212 -43h-3q-232 0 -364 163q-121 150 -123 388v7q0 228 123 381q133 161 367 163h6q84 0 160 -29t135 -90h4q-52 114 -148 237q-72 93 -157 171l-191 -115z"/>
<glyph glyph-name="ntilde" horiz-adv-x="1327" unicode="ñ" d="M90 90h158l4 873h-184v90h292q0 -125 -24 -252h4q82 273 385 276h7q157 0 244 -85q102 -99 103 -326v-32q0 -156 -8 -544h166v-90h-430v90h158q1 64 5 284q3 177 3 285q0 318 -273 320h-2q-151 0 -248 -121q-91 -113 -92 -268l-4 -500h166v-90h-430v90zM1004 1456 l-19 -31q-23 -37 -71 -71t-117 -35h-2q-56 0 -144 54q-85 52 -123 52q-34 0 -66 -27q-21 -18 -44 -50l-15 -21l-79 53l16 27q26 44 69 77q52 40 117 40q74 0 158 -51q93 -56 121 -56q33 0 62.5 23.5t47.5 46.5l17 22z"/>
<glyph glyph-name="ograve" horiz-adv-x="1176" unicode="ò" d="M215 526q0 -204 95 -326q98 -126 280 -126q178 0 279 126q96 120 96 326q0 205 -96 327q-99 126 -279 126q-181 0 -280 -126q-95 -121 -95 -327zM100 526v7q0 228 123 381q133 162 367 163h3q230 0 362 -163q122 -151 124 -388v-7q0 -228 -124 -381 q-131 -162 -248.5 -162.5t-119.5 -0.5q-232 0 -364 163q-121 150 -123 388zM330 1546l69 64l357 -314l-72 -55z"/>
<glyph glyph-name="oacute" horiz-adv-x="1176" unicode="ó" d="M215 526q0 -204 95 -326q98 -126 280 -126q178 0 279 126q96 120 96 326q0 205 -96 327q-99 126 -279 126q-181 0 -280 -126q-95 -121 -95 -327zM100 526v7q0 228 123 381q133 162 367 163h3q230 0 362 -163q122 -151 124 -388v-7q0 -228 -124 -381 q-131 -162 -248.5 -162.5t-119.5 -0.5q-232 0 -364 163q-121 150 -123 388zM424 1296l356 314l70 -64l-354 -305z"/>
<glyph glyph-name="ocircumflex" horiz-adv-x="1176" unicode="ô" d="M215 526q0 -204 95 -326q98 -126 280 -126q178 0 279 126q96 120 96 326q0 205 -96 327q-99 126 -279 126q-181 0 -280 -126q-95 -121 -95 -327zM100 526v7q0 228 123 381q133 162 367 163h3q230 0 362 -163q122 -151 124 -388v-7q0 -228 -124 -381 q-131 -162 -248.5 -162.5t-119.5 -0.5q-232 0 -364 163q-121 150 -123 388zM594 1507l-240 -262l-67 62l258 282h98l250 -282l-72 -62z"/>
<glyph glyph-name="otilde" horiz-adv-x="1176" unicode="õ" d="M215 526q0 -204 95 -326q98 -126 280 -126q178 0 279 126q96 120 96 326q0 205 -96 327q-99 126 -279 126q-181 0 -280 -126q-95 -121 -95 -327zM100 526v7q0 228 123 381q133 162 367 163h3q230 0 362 -163q122 -151 124 -388v-7q0 -228 -124 -381 q-131 -162 -248.5 -162.5t-119.5 -0.5q-232 0 -364 163q-121 150 -123 388zM930 1456l-19 -31q-23 -37 -71 -71t-117 -35h-2q-57 0 -143 54q-83 52 -123 52q-37 0 -67 -27q-26 -23 -44 -50l-14 -21l-80 53l16 27q26 44 69 77q52 40 118 40q73 0 157 -51q93 -56 121 -56 q33 0 62 23q10 8 49 47l16 22z"/>
<glyph glyph-name="odieresis" horiz-adv-x="1176" unicode="ö" d="M215 526q0 -204 95 -326q98 -126 280 -126q178 0 279 126q96 120 96 326q0 205 -96 327q-99 126 -279 126q-181 0 -280 -126q-95 -121 -95 -327zM100 526v7q0 228 123 381q133 162 367 163h3q230 0 362 -163q122 -151 124 -388v-7q0 -228 -124 -381 q-131 -162 -248.5 -162.5t-119.5 -0.5q-232 0 -364 163q-121 150 -123 388zM717 1412q0 37 25.5 65.5t45.5 29t22 0.5q37 0 61.5 -29t25 -50t0.5 -22q0 -38 -25 -66t-45.5 -28.5t-22.5 -0.5q-38 0 -62.5 29t-24.5 72zM283 1413q0 92 90 94h3q37 0 61.5 -29t25 -50t0.5 -22 q0 -38 -25 -66t-65 -29h-3q-87 0 -87 102z"/>
<glyph glyph-name="divide" horiz-adv-x="1229" unicode="÷" d="M96 567h1037v-98h-1037v98zM500 946q0 48 33.5 81.5t80.5 33.5q48 0 81.5 -34t33.5 -81q0 -48 -34 -81.5t-81 -33.5q-48 0 -81 34t-33 81zM500 90q0 48 33.5 81.5t80.5 33.5q48 0 81.5 -34t33.5 -81q0 -48 -34 -81.5t-81 -33.5q-48 0 -81 34t-33 81z"/>
<glyph glyph-name="oslash" horiz-adv-x="1176" unicode="ø" d="M782 926q-76 52 -194 53h-3q-178 0 -277 -126q-95 -121 -95 -327q0 -236 121 -354zM279 80q-181 154 -181 446q0 235 123 388q132 161 367 163h4q139 0 244 -61l125 209l73 -49l-127 -213q169 -151 170 -441q0 -236 -126 -386q-133 -159 -363 -161h-4q-125 0 -232 56 l-123 -205l-73 49zM406 121q72 -46 182 -47h4q130 0 221 72q90 71 126 197q24 83 24 183q0 225 -111 342z"/>
<glyph glyph-name="ugrave" horiz-adv-x="1327" unicode="ù" d="M365 1053q-1 -83 -5 -330q-4 -206 -4 -330q0 -156 57 -232q66 -87 216 -87q162 0 249 113t91 321l8 455h-189v90h295l-8 -963h164v-90h-268q0 122 24 252h-4q-37 -126 -136.5 -201t-229.5 -76h-8q-169 0 -260 87q-106 101 -107 325v32q0 156 8 544h-180v90h287zM403 1546 l70 64l356 -314l-71 -55z"/>
<glyph glyph-name="uacute" horiz-adv-x="1327" unicode="ú" d="M365 1053q-1 -83 -5 -330q-4 -206 -4 -330q0 -156 57 -232q66 -87 216 -87q162 0 249 113t91 321l8 455h-189v90h295l-8 -963h164v-90h-268q0 122 24 252h-4q-37 -126 -136.5 -201t-229.5 -76h-8q-169 0 -260 87q-106 101 -107 325v32q0 156 8 544h-180v90h287zM498 1296 l356 314l70 -64l-355 -305z"/>
<glyph glyph-name="ucircumflex" horiz-adv-x="1327" unicode="û" d="M365 1053q-1 -83 -5 -330q-4 -206 -4 -330q0 -156 57 -232q66 -87 216 -87q162 0 249 113t91 321l8 455h-189v90h295l-8 -963h164v-90h-268q0 122 24 252h-4q-37 -126 -136.5 -201t-229.5 -76h-8q-169 0 -260 87q-106 101 -107 325v32q0 156 8 544h-180v90h287zM668 1507 l-240 -262l-68 62l258 282h99l250 -282l-72 -62z"/>
<glyph glyph-name="udieresis" horiz-adv-x="1327" unicode="ü" d="M365 1053q-1 -83 -5 -330q-4 -206 -4 -330q0 -156 57 -232q66 -87 216 -87q162 0 249 113t91 321l8 455h-189v90h295l-8 -963h164v-90h-268q0 122 24 252h-4q-37 -126 -136.5 -201t-229.5 -76h-8q-169 0 -260 87q-106 101 -107 325v32q0 156 8 544h-180v90h287zM770 1412 q0 37 25.5 65.5t45.5 29t22 0.5q37 0 61.5 -29t25 -50t0.5 -22q0 -38 -25 -66t-45.5 -28.5t-22.5 -0.5q-38 0 -62.5 29t-24.5 72zM336 1412q0 37 25.5 65.5t45.5 29t22 0.5q37 0 61.5 -29t25 -50t0.5 -22q0 -38 -25 -66t-45.5 -28.5t-22.5 -0.5q-38 0 -62.5 29t-24.5 72z "/>
<glyph glyph-name="yacute" d="M422 1053v-90h-150l285 -777q9 -25 23 -77h4q3 31 18 73l272 781h-157v90h391v-90h-127l-367 -1026q-91 -253 -191 -359q-109 -115 -290 -117q-32 0 -68 6q-18 3 -55 11v100q43 -9 129 -18h4q207 0 301 223l80 190l-377 990h-137v90h412zM403 1296l357 314l69 -64 l-354 -305z" unicode="ý"/>
<glyph glyph-name="thorn" horiz-adv-x="1251" unicode="þ" d="M74 -424h170l8 1909h-197v90h303l-4 -539q-1 -76 -4 -200h4q59 118 136 174q43 31 100 49t131 18q208 0 324 -144q108 -133 108 -345q0 -271 -127 -433q-141 -180 -418 -180q-156 0 -254 37l-4 -436h191v-90h-467v90zM354 119q117 -52 258 -53h6q209 0 318 141 q101 131 102 353q0 186 -76 295q-86 124 -262 124q-146 0 -246 -116q-44 -51 -71 -122.5t-27 -144.5z"/>
<glyph glyph-name="OE" horiz-adv-x="2087" unicode="Œ" d="M1780 680h-533l-4 -590h602l17 213h98l-16 -303h-760q-142 -13 -268 -22q-43 -3 -93 -3q-345 0 -528 194q-180 191 -180 538q0 365 208 562q200 189 537 189q77 0 162 -9q52 -5 156 -17h745v-285h-90v194h-582l-4 -571h533v-90zM1137 1341q-93 9 -281 19h-6 q-138 0 -256 -45q-234 -89 -322 -333q-43 -120 -43 -277q0 -307 170 -473q163 -158 453 -158q191 0 276 16z"/>
<glyph glyph-name="oe" horiz-adv-x="1858" unicode="œ" d="M1012 537v-125q0 -166 109 -257q95 -79 243 -81h8q153 0 330 76v-99q-84 -34 -146 -51q-84 -24 -202 -25h-8q-138 0 -244 66q-121 75 -148 209h-4q-25 -106 -122 -189q-101 -86 -246 -86q-228 0 -359 163q-121 151 -123 388v7q0 228 123 381q132 161 367 163h6 q196 0 308 -141q34 -43 61 -98h4q46 117 147 179q96 59 223 60h7q79 0 143 -22q126 -42 189 -149q78 -131 83 -369h-749zM905 625q0 354 -323 354q-175 0 -273 -126q-94 -121 -94 -327q0 -200 93 -326t267 -126q156 0 240 96q90 102 90 311v144zM1647 627q0 152 -71 246 q-79 104 -237 106h-3q-147 0 -233 -89q-91 -94 -91 -263h635z"/>
<glyph glyph-name="Scaron" horiz-adv-x="1176" unicode="Š" d="M256 324l4 -197q60 -23 141 -38q77 -14 166 -15h8q185 0 286 89q89 79 89 212q0 139 -124 216q-63 39 -271 96q-96 26 -141 43q-80 29 -131 67q-123 91 -123 265q0 157 112 268q130 128 361 128q158 0 304 -44q25 -7 69 -21l4 -263h-99l-4 189q-116 41 -282 41 q-105 0 -191 -40q-98 -46 -137 -133q-23 -51 -23 -111q0 -142 123 -213q71 -42 272 -96q138 -37 208 -75q106 -58 154 -153q34 -67 34 -173q0 -173 -129.5 -281t-357.5 -110h-8q-96 0 -226 23q-102 18 -190 45l-4 281h106zM326 1796l71 62l228 -263l239 263l68 -62 l-258 -283h-99z"/>
<glyph glyph-name="scaron" horiz-adv-x="985" unicode="š" d="M213 299l4 -178q38 -24 106.5 -39t149.5 -16h8q197 0 251 137q15 38 15 73q0 71 -39 114q-43 48 -141 71l-180 43q-136 33 -204 96q-75 70 -75 187q0 125 101 208q97 81 266 82h9q90 0 169.5 -18.5t141.5 -46.5l4 -240h-99l-4 170q-81 44 -215 45h-5q-105 0 -171 -42 q-82 -51 -82 -152q0 -154 178 -193l195 -43q266 -58 266 -270q0 -234 -235 -293q-72 -18 -162 -19h-7q-148 0 -275 44q-35 12 -62 26l-8 254h100zM192 1528l72 61l227 -262l240 262l68 -61l-258 -283h-99z"/>
<glyph glyph-name="Ydieresis" horiz-adv-x="1442" unicode="Ÿ" d="M508 90h166l8 549l-516 704h-154v91h441v-91h-154q21 -21 41 -49l397 -553l400 553q12 18 41 49h-189v91h441v-91h-136l-497 -704l-9 -549h179v-90h-459v90zM868 1660q0 37 25.5 65.5t64.5 29.5h3q39 0 63 -28.5t24.5 -50t0.5 -22.5q0 -39 -25 -66.5t-66 -28.5h-3 q-38 0 -62.5 29t-24.5 72zM434 1660q0 37 25.5 65.5t45.5 29t22 0.5q37 0 61.5 -29t25 -50t0.5 -22q0 -38 -25 -66t-45.5 -28.5t-22.5 -0.5q-38 0 -62.5 29t-24.5 72z"/>
<glyph glyph-name="circumflex" horiz-adv-x="569" unicode="ˆ" d="M289 1507l-240 -262l-67 62l258 282h98l250 -282l-72 -62z"/>
<glyph glyph-name="tilde" horiz-adv-x="569" unicode="˜" d="M625 1456l-19 -31q-23 -37 -71 -71t-117 -35h-2q-56 0 -144 54q-85 52 -122 52q-35 0 -67 -27q-24 -20 -44 -50l-14 -21l-80 53l16 27q5 9 30 39q36 43 91 66q29 12 65 12q74 0 158 -51q93 -56 121 -56q33 0 62 23q10 8 49 47l16 22z"/>
<glyph glyph-name="pi" horiz-adv-x="1034" unicode="π" d="M993 915v-145h-231l-21 -303q-6 -87 -6 -137q0 -140 33 -170.5t78 -30.5h2q93 0 113 121h34q-33 -276 -221 -277h-2q-190 0 -192 213v7q0 76 20 288l27 289h-211q-20 -343 -51 -532q-20 -124 -39 -168q-40 -96 -123 -97h-3q-43 0 -74.5 27t-31.5 72q0 42 53 112 q77 103 119 222q35 99 60 364h-70q-76 0 -125 -37q-26 -19 -44 -44q-8 -11 -38 -60h-37q29 105 76 176q50 76 113 96q42 14 153 14h639z"/>
<glyph glyph-name="endash" horiz-adv-x="1024" unicode="–" d="M0 582h1024v-99h-1024v99z"/>
<glyph glyph-name="emdash" horiz-adv-x="2048" unicode="—" d="M0 582h2048v-99h-2048v99z"/>
<glyph glyph-name="quoteleft" horiz-adv-x="569" unicode="‘" d="M392 1542q-33 -26 -65.5 -84.5t-32.5 -103.5q0 -40 25 -76q26 -31 51 -62q13 -18 14 -45q1 -29 -25 -53q-10 -10 -28 -17.5t-39 -8.5h-3q-16 0 -36 10q-44 21 -64 76q-10 28 -10 69q0 60 27 139q32 92 88 152l49 53z"/>
<glyph glyph-name="quotesinglbase" horiz-adv-x="569" unicode="‚" d="M178 -279q31 25 64.5 85t33.5 107q0 37 -25 72q-25 31 -51 62q-13 17 -14 45t25.5 53t67.5 27h4q40 0 71 -39q37 -47 37 -117q0 -56 -28 -139q-32 -90 -87 -151l-49 -54z"/>
<glyph glyph-name="quotedblleft" horiz-adv-x="797" unicode="“" d="M675 1542q-30 -24 -64.5 -83t-34.5 -105q0 -53 45 -100t46 -83q1 -29 -25 -53q-10 -10 -28 -17.5t-40 -8.5h-4q-40 0 -74 43t-34 113q0 63 26 138q33 94 88 152l50 53zM337 1542q-33 -26 -65.5 -84.5t-32.5 -103.5q0 -40 25 -76q26 -31 51 -62q13 -18 14 -45 q1 -29 -25 -53q-10 -10 -28 -17.5t-39 -8.5h-4q-41 0 -75 43t-34 112q0 60 27 139q32 92 88 152l49 53z"/>
<glyph glyph-name="quotedblright" horiz-adv-x="797" unicode="”" d="M461 1141q32 26 65 85t33 105q0 49 -45 98q-24 26 -31 37q-13 20 -14 45q-1 28 25.5 53.5t66.5 26.5h4q39 0 73 -41t36 -110v-6q0 -24 -7 -60q-15 -81 -56 -156q-22 -41 -52 -73l-49 -53zM123 1141q32 26 65 85t33 105q0 49 -45 98q-24 26 -31 37q-13 20 -14 45 q-1 28 25.5 53.5t66.5 26.5h4q39 0 73 -41t36 -110v-6q0 -24 -7 -60q-15 -81 -56 -156q-22 -41 -52 -73l-49 -53z"/>
<glyph glyph-name="dagger" d="M627 1434l-4 -473h409v-91h-409l-5 -1269h-106l4 1269h-410v91h410l4 473h107z" unicode="†"/>
<glyph glyph-name="daggerdbl" d="M106 197h408l2 673h-410v91h410l4 473h107l-4 -473h409v-91h-409l-2 -673h411v-91h-411l-3 -505h-106l2 505h-408v91z" unicode="‡"/>
<glyph glyph-name="ellipsis" horiz-adv-x="2048" unicode="…" d="M249 77q0 37 28 66q26 27 66 29h4q17 0 32 -8q31 -11 50 -52q7 -16 8 -38t-8 -39q-19 -57 -86 -60h-4q-17 0 -32 8q-32 12 -51 52q-7 23 -7 42zM931 77q0 37 28 66q26 27 66 29h4q17 0 32 -8q31 -11 50 -52q7 -16 8 -38t-8 -39q-19 -57 -86 -60h-4q-17 0 -32 8 q-32 12 -51 52q-7 23 -7 42zM1613 77q0 37 28 66q26 27 66 29h4q17 0 32 -8q31 -11 50 -52q7 -16 7.5 -28t0.5 -14q0 -19 -8 -35q-19 -57 -86 -60h-4q-17 0 -32 8q-32 12 -51 52q-7 23 -7 42z"/>
<glyph glyph-name="perthousand" horiz-adv-x="2390" unicode="‰" d="M2011 631h5q61 0 118 -23q112 -45 158 -166q22 -58 22 -136q0 -150 -90 -242q-82 -84 -217 -84q-143 0 -228 94q-81 89 -81 231q0 144 87 234t226 92zM2007 549h-3q-92 0 -150 -65.5t-58 -178.5q0 -108 52 -173q56 -69 161 -71h4q144 0 189 148q14 45 14 108 q0 98 -52.5 164t-156.5 68zM389 1454h5q61 0 118 -23q112 -45 158 -166q22 -59 22 -135q0 -148 -90 -242q-82 -85 -217 -85q-143 0 -228 94q-81 89 -81 231q0 144 87 234t226 92zM385 1372h-3q-92 0 -150 -65.5t-58 -178.5q0 -107 52 -172q56 -69 161 -71h4q144 0 189 148 q13 43 14 104v6q0 42 -13 85q-27 89 -103 125q-39 18 -93 19zM1288 631h5q61 0 118 -23q112 -45 158 -166q22 -58 22 -136q0 -150 -90 -242q-82 -84 -217 -84q-143 0 -228 94q-81 89 -81 231q0 144 87 234t226 92zM1284 549h-3q-92 0 -150 -65.5t-58 -178.5q0 -108 52 -173 q56 -69 161 -71h4q144 0 189 148q14 45 14 108q0 98 -52.5 164t-156.5 68zM309 -61l940 1605l74 -49l-940 -1606z"/>
<glyph glyph-name="guilsinglleft" horiz-adv-x="606" unicode="‹" d="M131 575l275 295l69 -63l-254 -275l244 -272l-70 -65l-264 294v86z"/>
<glyph glyph-name="guilsinglright" horiz-adv-x="606" unicode="›" d="M475 489l-274 -294l-70 63l254 274l-244 273l70 65l264 -295v-86z"/>
<glyph glyph-name="fraction" horiz-adv-x="342" unicode="⁄" d="M-336 -61l940 1605l74 -49l-940 -1606z"/>
<glyph glyph-name="Euro" d="M1104 1147h-94v166q-114 39 -213 39q-390 0 -475 -457h657l-41 -94h-627q-4 -52 -4 -94v-35h586l-41 -94h-537q65 -495 471 -496q131 0 299 61l-2 -106q-139 -50 -307 -51h-3q-257 0 -408 168q-138 153 -166 424h-117l41 94h70v74q0 39 2 55h-117l41 94h88 q47 250 184 393q152 159 395 160h4q155 0 314 -68v-233z" unicode="€"/>
<glyph glyph-name="trademark" horiz-adv-x="2028" unicode="™" d="M365 1343h-279v91h655v-91h-278v-753h-98v753zM1606 1434h168v-844h-99v753h-4l-305 -753h-61l-306 753h-4v-753h-98v844h168l274 -695z"/>
<glyph glyph-name="partialdiff" horiz-adv-x="1012" unicode="∂" d="M911 629q-35 105 -115 167q-75 58 -171 58q-212 0 -328 -281q-64 -155 -64 -315q0 -104 54 -169q51 -61 141 -62h2q122 0 250 129q159 160 231 473zM930 717q10 127 10 186q0 176 -94 278q-90 98 -250 99h-5q-187 0 -296 -160h-47q115 235 266 284q52 17 115 17 q150 0 251 -113q53 -59 85 -154q30 -90 30 -234q0 -356 -153 -635q-173 -315 -439 -316q-73 0 -140 24q-126 46 -176 171q-24 60 -24 139q0 174 99 332q90 144 223 213q112 58 231 59h3q149 0 255 -106q25 -25 56 -84z"/>
<glyph glyph-name="product" horiz-adv-x="1686" unicode="∏" d="M1239 1341h-795v-1589q0 -83 37 -119t125 -36h37v-37h-598v37h37q86 0 124 35t38 120v1477q0 153 -162 153h-37v37h1595v-37h-34q-162 0 -162 -153v-1477q0 -83 37 -119t125 -36h34v-37h-598v37h35q86 0 124 35t38 120v1589z"/>
<glyph glyph-name="summation" horiz-adv-x="1460" unicode="∑" d="M1356 -440h-1313v37l670 899l-670 886v37h1278l27 -336h-39q-16 135 -78 195.5t-172 60.5h-740l562 -757l-629 -846h817q79 0 154 26q86 30 129 130q13 31 28 90l39 -9z"/>
<glyph glyph-name="minus" horiz-adv-x="1229" unicode="−" d="M96 567h1037v-98h-1037v98z"/>
<glyph glyph-name="radical" horiz-adv-x="1124" unicode="√" d="M1049 1870h73l-311 -1948l-496 1020l-198 -90l-33 63l299 152l405 -823z"/>
<glyph glyph-name="infinity" horiz-adv-x="1460" unicode="∞" d="M625 590q-96 213 -269 215h-4q-47 0 -93 -20q-93 -40 -131 -142q-19 -50 -19 -117q0 -111 56 -193q65 -94 173 -95h2q94 0 166 86q50 60 119 266zM750 465q69 -150 147 -211q66 -52 164 -53h3q90 0 162 52q70 52 102 139q22 58 22 137q0 145 -88 241t-195 96 q-68 0 -120.5 -35.5t-92.5 -111.5q-22 -42 -104 -254zM653 668q65 154 147.5 214.5t223.5 61.5h3q155 0 269 -117q111 -113 111 -301q0 -180 -107.5 -299.5t-242.5 -120.5h-2q-94 0 -183 74q-50 42 -151 213q-69 -129 -141 -179q-76 -53 -185 -54h-3q-149 0 -245 109 q-94 107 -94 263q0 164 91.5 263t215.5 100h4q83 0 148 -45t141 -182z"/>
<glyph glyph-name="approxequal" horiz-adv-x="1124" unicode="≈" d="M1096 547q-5 -192 -150 -256q-41 -18 -92 -19h-3q-45 0 -149 31l-223 92q-153 63 -221 64h-3q-147 0 -181 -185h-43q0 127 70 202q65 70 159 73h4q66 0 211 -56q51 -20 166 -67q31 -13 89 -36q25 -7 69 -21q12 -4 30.5 -6.5t34.5 -2.5h5q160 0 184 187h43zM1096 1038 q-3 -123 -75 -200q-67 -72 -167 -72q-53 0 -100 14q-69 22 -275 107q-150 62 -221 63h-3q-146 0 -181 -182h-43q0 125 70 198q67 70 161 74h9q36 0 79 -14q72 -18 233 -84q52 -22 155 -64q50 -19 78 -23q18 -3 48 -3q165 0 189 186h43z"/>
<glyph glyph-name="notequal" horiz-adv-x="1124" unicode="≠" d="M25 817h602l211 535h80l-207 -535h389v-92h-426l-144 -371h570v-94h-606l-211 -528h-80l209 528h-387v94h424l145 371h-569v92z"/>
<glyph glyph-name="lessequal" horiz-adv-x="1124" unicode="≤" d="M25 -70h1075v-92h-1075v92zM1098 246l-1073 456v82l1073 455v-102l-951 -394l951 -395v-102z"/>
<glyph glyph-name="greaterequal" horiz-adv-x="1124" unicode="≥" d="M25 -70h1075v-92h-1075v92zM25 1239l1073 -457v-82l-1073 -454v102l950 393l-950 396v102z"/>
<glyph glyph-name="lozenge" horiz-adv-x="1012" unicode="◊" d="M496 1325l-340 -616l340 -615l358 615zM549 1421l418 -712l-418 -709h-111l-391 709l391 712h111z"/>
</font>
</defs>
</svg>
